<?xml version="1.0" standalone="no"?>
<!DOCTYPE svg PUBLIC "-//W3C//DTD SVG 1.1//EN" "http://www.w3.org/Graphics/SVG/1.1/DTD/svg11.dtd" >
<svg xmlns="http://www.w3.org/2000/svg" xmlns:xlink="http://www.w3.org/1999/xlink" version="1.1">
<metadata>
Created by FontForge 20170910 at Thu Apr 19 11:23:59 2018
 By Jimmy Wärting
Copyright \(c\) 2017 by Noponies. All rights reserved.
</metadata>
<defs>
<font id="SulphurPoint-Regular" horiz-adv-x="0" >
  <font-face 
    font-family="Sulphur Point"
    font-weight="400"
    font-stretch="normal"
    units-per-em="1000"
    panose-1="0 0 5 0 0 0 0 0 0 0"
    ascent="800"
    descent="-200"
    x-height="496"
    cap-height="665"
    bbox="-577 -224 1003 882.209"
    underline-thickness="50"
    underline-position="-100"
    stemh="64"
    stemv="68"
    unicode-range="U+0020-25CA"
  />
<missing-glyph horiz-adv-x="507" 
d="M415 800v-1013h-321v1013h321zM337 732h-167v-33h66v-38h-67v-33h168v33h-67v38h67v33zM270 601h-101v-105h168v35h-67v70zM236 567v-36h-33v36h33zM337 469h-168v-34h67v-37h-67v-34h101v71h67v34zM337 408h-33v-67h-135v-34h168v101zM337 284h-101v-56h34v23h34v-48
h-101v81h-34v-114h168v114zM337 109h-168v-114h168v114zM304 76v-48h-101v48h101zM337 -29h-168v-33h71l-71 -48v-33h168v33h-103l71 48h32v33z" />
    <glyph glyph-name=".notdef" horiz-adv-x="507" 
d="M415 800v-1013h-321v1013h321zM337 732h-167v-33h66v-38h-67v-33h168v33h-67v38h67v33zM270 601h-101v-105h168v35h-67v70zM236 567v-36h-33v36h33zM337 469h-168v-34h67v-37h-67v-34h101v71h67v34zM337 408h-33v-67h-135v-34h168v101zM337 284h-101v-56h34v23h34v-48
h-101v81h-34v-114h168v114zM337 109h-168v-114h168v114zM304 76v-48h-101v48h101zM337 -29h-168v-33h71l-71 -48v-33h168v33h-103l71 48h32v33z" />
    <glyph glyph-name="A" unicode="A" horiz-adv-x="632" 
d="M519 0l-86 245h-234l-86 -245h-73l233 664h86l233 -664h-73zM221 309h190l-95 272z" />
    <glyph glyph-name="Aacute" unicode="&#xc1;" horiz-adv-x="632" 
d="M413 877l-54 -163h-62l46 163h70zM519 0l-86 245h-234l-86 -245h-73l233 664h86l233 -664h-73zM221 309h190l-95 272z" />
    <glyph glyph-name="Abreve" unicode="&#x102;" horiz-adv-x="632" 
d="M316 722c-44 0 -88 22 -114 61c-13 20 -20 42 -22 64h55c2 -11 6 -23 13 -33c25 -38 75 -48 112 -23c20 13 33 34 36 56h55c-3 -40 -24 -78 -61 -102c-23 -15 -49 -23 -74 -23zM519 0l-86 245h-234l-86 -245h-73l233 664h86l233 -664h-73zM221 309h190l-95 272z" />
    <glyph glyph-name="Acircumflex" unicode="&#xc2;" horiz-adv-x="632" 
d="M318 763l-54 -53h-78l133 131l127 -131h-76zM519 0l-86 245h-234l-86 -245h-73l233 664h86l233 -664h-73zM221 309h190l-95 272z" />
    <glyph glyph-name="Adieresis" unicode="&#xc4;" horiz-adv-x="632" 
d="M196 710c-24 0 -44 20 -44 44s20 44 44 44c25 0 45 -20 45 -44s-20 -44 -45 -44zM374 710c-24 0 -44 20 -44 44s20 44 44 44c25 0 45 -20 45 -44s-20 -44 -45 -44zM519 0l-86 245h-234l-86 -245h-73l233 664h86l233 -664h-73zM221 309h190l-95 272z" />
    <glyph glyph-name="Agrave" unicode="&#xc0;" horiz-adv-x="632" 
d="M341 714h-62l-54 163h70zM519 0l-86 245h-234l-86 -245h-73l233 664h86l233 -664h-73zM221 309h190l-95 272z" />
    <glyph glyph-name="Amacron" unicode="&#x100;" horiz-adv-x="632" 
d="M476 785v-50h-321v50h321zM519 0l-86 245h-234l-86 -245h-73l233 664h86l233 -664h-73zM221 309h190l-95 272z" />
    <glyph glyph-name="Aogonek" unicode="&#x104;" horiz-adv-x="632" 
d="M607 -138l40 -37c-24 -28 -53 -35 -74 -36c-16 -1 -27 1 -32 2c-52 13 -85 66 -74 118c7 37 32 65 66 77l1 14h-15l-86 245h-234l-86 -245h-73l233 664h86l233 -664h-5l-1 -63s-14 2 -24 0c-21 -2 -38 -18 -42 -38c-5 -24 10 -48 34 -54c3 -1 31 -7 53 17zM221 309h190
l-95 272z" />
    <glyph glyph-name="Aring" unicode="&#xc5;" horiz-adv-x="632" 
d="M316 701c-30 0 -58 15 -76 41c-13 20 -18 44 -13 68s19 44 39 57c41 28 98 16 125 -25c28 -42 16 -98 -25 -126c-16 -10 -33 -15 -50 -15zM267 802c-2 -13 0 -26 7 -37c15 -23 46 -29 69 -14s29 45 14 68c-10 14 -25 22 -41 22c-10 0 -19 -2 -28 -8
c-11 -7 -18 -18 -21 -31zM519 0l-86 245h-234l-86 -245h-73l233 664h86l233 -664h-73zM221 309h190l-95 272z" />
    <glyph glyph-name="Atilde" unicode="&#xc3;" horiz-adv-x="632" 
d="M211 707c-1 -3 -3 -6 -4 -9l-45 36c7 13 16 25 27 35c18 19 40 28 63 27c30 -1 56 -14 78 -25c20 -10 36 -18 49 -16c19 2 32 18 46 46l45 -35c-25 -39 -50 -61 -80 -67c-32 -6 -61 9 -86 22c-18 9 -36 18 -54 19c-17 0 -32 -21 -39 -33zM519 0l-86 245h-234l-86 -245
h-73l233 664h86l233 -664h-73zM221 309h190l-95 272z" />
    <glyph glyph-name="AE" unicode="&#xc6;" horiz-adv-x="794" 
d="M458 596v-231h199v-68h-199v-230h296v-68h-364v244h-192l-85 -243h-73l233 664h481v-68h-296zM222 311h168v285h-69l-5 -15z" />
    <glyph glyph-name="B" unicode="B" horiz-adv-x="493" 
d="M363 342c54 -32 90 -91 90 -159c0 -101 -82 -183 -184 -183h-219v666h52v1h143c101 0 184 -83 184 -184c0 -57 -26 -107 -66 -141zM360 483c0 63 -52 115 -115 115h-127v-231h127c63 0 115 52 115 116zM269 68c64 0 116 52 116 115c0 64 -52 116 -116 116h-151v-231h151z
" />
    <glyph glyph-name="C" unicode="C" horiz-adv-x="671" 
d="M376 -6c-186 0 -336 150 -336 336s150 338 336 338c98 0 192 -42 255 -118l-52 -44c-51 59 -125 93 -203 93c-147 0 -267 -122 -267 -269s120 -267 267 -267c78 0 152 34 203 93l52 -44c-63 -75 -157 -118 -255 -118z" />
    <glyph glyph-name="Cacute" unicode="&#x106;" horiz-adv-x="671" 
d="M367 877h70l-54 -163h-62zM376 -6c-186 0 -336 150 -336 336s150 338 336 338c98 0 192 -42 255 -118l-52 -44c-51 59 -125 93 -203 93c-147 0 -267 -122 -267 -269s120 -267 267 -267c78 0 152 34 203 93l52 -44c-63 -75 -157 -118 -255 -118z" />
    <glyph glyph-name="Ccaron" unicode="&#x10c;" horiz-adv-x="671" 
d="M392 841h76l-127 -131l-133 131h78l54 -53zM376 -6c-186 0 -336 150 -336 336s150 338 336 338c98 0 192 -42 255 -118l-52 -44c-51 59 -125 93 -203 93c-147 0 -267 -122 -267 -269s120 -267 267 -267c78 0 152 34 203 93l52 -44c-63 -75 -157 -118 -255 -118z" />
    <glyph glyph-name="Ccedilla" unicode="&#xc7;" horiz-adv-x="671" 
d="M376 63c78 0 152 34 203 93l52 -44c-63 -75 -157 -118 -255 -118c-7 0 -15 0 -22 1l-6 -15c44 -9 77 -48 77 -94c0 -53 -43 -96 -96 -96c-24 0 -47 9 -65 25l35 38c8 -7 19 -11 30 -11c24 0 44 20 44 44s-20 45 -44 45c-7 0 -12 -2 -18 -4l-20 47l11 28
c-150 34 -262 167 -262 328c0 186 150 338 336 338c98 0 192 -42 255 -118l-52 -44c-51 59 -125 93 -203 93c-147 0 -267 -122 -267 -269s120 -267 267 -267z" />
    <glyph glyph-name="D" unicode="D" horiz-adv-x="591" 
d="M218 0h-168v666h168c184 0 333 -149 333 -333s-149 -333 -333 -333zM119 68h99c146 0 265 119 265 265s-119 265 -265 265h-99v-530z" />
    <glyph glyph-name="Eth" unicode="&#xd0;" horiz-adv-x="631" 
d="M218 666c184 0 333 -149 333 -333s-149 -333 -333 -333h-168v303h-10v60h10v303h168zM119 598v-235h362c-15 132 -127 235 -263 235h-99zM218 68c136 0 248 103 263 235h-362v-235h99z" />
    <glyph glyph-name="Dcaron" unicode="&#x10e;" horiz-adv-x="591" 
d="M348 841h76l-127 -131l-133 131h78l54 -53zM218 0h-168v666h168c184 0 333 -149 333 -333s-149 -333 -333 -333zM119 68h99c146 0 265 119 265 265s-119 265 -265 265h-99v-530z" />
    <glyph glyph-name="Dcroat" unicode="&#x110;" horiz-adv-x="591" 
d="M218 666c184 0 333 -149 333 -333s-149 -333 -333 -333h-168v310h-96v66h96v290h168zM218 68c146 0 265 119 265 265s-119 265 -265 265h-99v-222h104v-66h-104v-242h99z" />
    <glyph glyph-name="E" unicode="E" horiz-adv-x="464" 
d="M414 597h-296v-233h199v-64h-199v-232h296v-68h-364v665h364v-68z" />
    <glyph glyph-name="Eacute" unicode="&#xc9;" horiz-adv-x="464" 
d="M324 877l-54 -163h-62l46 163h70zM414 597h-296v-233h199v-64h-199v-232h296v-68h-364v665h364v-68z" />
    <glyph glyph-name="Ecaron" unicode="&#x11a;" horiz-adv-x="464" 
d="M355 841l-127 -131l-133 131h78l54 -53l52 53h76zM414 597h-296v-233h199v-64h-199v-232h296v-68h-364v665h364v-68z" />
    <glyph glyph-name="Ecircumflex" unicode="&#xca;" horiz-adv-x="464" 
d="M229 763l-54 -53h-78l133 131l127 -131h-76zM414 597h-296v-233h199v-64h-199v-232h296v-68h-364v665h364v-68z" />
    <glyph glyph-name="Edieresis" unicode="&#xcb;" horiz-adv-x="464" 
d="M107 710c-24 0 -44 20 -44 44s20 44 44 44c25 0 45 -20 45 -44s-20 -44 -45 -44zM285 710c-24 0 -44 20 -44 44s20 44 44 44c25 0 45 -20 45 -44s-20 -44 -45 -44zM414 597h-296v-233h199v-64h-199v-232h296v-68h-364v665h364v-68z" />
    <glyph glyph-name="Edotaccent" unicode="&#x116;" horiz-adv-x="464" 
d="M196 710c-24 0 -44 20 -44 44s20 44 44 44c25 0 45 -20 45 -44s-20 -44 -45 -44zM414 597h-296v-233h199v-64h-199v-232h296v-68h-364v665h364v-68z" />
    <glyph glyph-name="Egrave" unicode="&#xc8;" horiz-adv-x="464" 
d="M252 714h-62l-54 163h70zM414 597h-296v-233h199v-64h-199v-232h296v-68h-364v665h364v-68z" />
    <glyph glyph-name="Emacron" unicode="&#x112;" horiz-adv-x="464" 
d="M387 785v-50h-321v50h321zM414 597h-296v-233h199v-64h-199v-232h296v-68h-364v665h364v-68z" />
    <glyph glyph-name="Eogonek" unicode="&#x118;" horiz-adv-x="464" 
d="M434 -135l40 -37c-24 -28 -53 -35 -74 -36c-16 -1 -27 1 -32 2c-52 13 -85 66 -74 118c7 37 32 65 66 77l1 11h-311v665h364v-68h-296v-233h199v-64h-199v-232h296v-68l-1 -60s-14 2 -24 0c-21 -2 -38 -18 -42 -38c-5 -24 10 -48 34 -54c3 -1 31 -7 53 17z" />
    <glyph glyph-name="F" unicode="F" horiz-adv-x="454" 
d="M414 597h-297v-231h200v-68h-200v-298h-67v665h364v-68z" />
    <glyph glyph-name="G" unicode="G" horiz-adv-x="693" 
d="M479 313h164v-180c-19 -26 -41 -49 -67 -69c-14 -11 -29 -20 -46 -29c-162 -86 -364 -25 -451 138c-13 26 -24 54 -30 82c-17 73 -9 151 24 218c29 62 78 114 138 148c64 35 138 49 210 39c78 -11 152 -51 206 -114l-52 -44c-29 33 -65 59 -105 74
c-69 27 -150 25 -221 -12c-48 -26 -88 -67 -112 -117c-29 -57 -36 -124 -19 -187c15 -55 48 -104 94 -140c46 -35 103 -55 161 -55c78 0 151 34 202 93l1 87h-97v68z" />
    <glyph glyph-name="Gcommaaccent" unicode="&#x122;" horiz-adv-x="693" 
d="M479 313h164v-180c-19 -26 -41 -49 -67 -69c-14 -11 -29 -20 -46 -29c-44 -23 -91 -36 -138 -38l-49 -149h-62l41 152h1c-100 16 -192 76 -244 173c-13 26 -24 54 -30 82c-17 73 -9 151 24 218c29 62 78 114 138 148c64 35 138 49 210 39c78 -11 152 -51 206 -114
l-52 -44c-29 33 -65 59 -105 74c-69 27 -150 25 -221 -12c-48 -26 -88 -67 -112 -117c-29 -57 -36 -124 -19 -187c15 -55 48 -104 94 -140c46 -35 103 -55 161 -55c78 0 151 34 202 93l1 87h-97v68z" />
    <glyph glyph-name="H" unicode="H" horiz-adv-x="545" 
d="M428 665h67v-665h-67v298h-310v-298h-68v665h68v-299h310v299z" />
    <glyph glyph-name="I" unicode="I" horiz-adv-x="168" 
d="M50 665h68v-665h-68v665z" />
    <glyph glyph-name="Iacute" unicode="&#xcd;" horiz-adv-x="211" 
d="M101 877h70l-54 -163h-62zM50 665h68v-665h-68v665z" />
    <glyph glyph-name="Icircumflex" unicode="&#xce;" horiz-adv-x="340" 
d="M224 710l-52 53l-54 -53h-78l133 131l127 -131h-76zM136 665h68v-665h-68v665z" />
    <glyph glyph-name="Idieresis" unicode="&#xcf;" horiz-adv-x="347" 
d="M84 710c25 0 45 20 45 44s-20 44 -45 44c-24 0 -44 -20 -44 -44s20 -44 44 -44zM262 710c25 0 45 20 45 44s-20 44 -45 44c-24 0 -44 -20 -44 -44s20 -44 44 -44zM140 665h68v-665h-68v665z" />
    <glyph glyph-name="Igrave" unicode="&#xcc;" horiz-adv-x="210" 
d="M110 877l46 -163h-62l-54 163h70zM92 665h68v-665h-68v665z" />
    <glyph glyph-name="Imacron" unicode="&#x12a;" horiz-adv-x="401" 
d="M361 735h-321v50h321v-50zM167 665h68v-665h-68v665z" />
    <glyph glyph-name="Iogonek" unicode="&#x12e;" horiz-adv-x="168" 
d="M140 -135l40 -37c-24 -28 -53 -35 -74 -36c-16 -1 -27 1 -32 2c-52 13 -85 66 -74 118c7 37 32 65 66 77l1 11h-17v665h68v-658h2l-1 -67s-14 2 -24 0c-21 -2 -38 -18 -42 -38c-5 -24 10 -48 34 -54c3 -1 31 -7 53 17z" />
    <glyph glyph-name="J" unicode="J" horiz-adv-x="273" 
d="M40 68c63 0 115 52 115 115v482h68v-482c0 -101 -82 -183 -183 -183v68z" />
    <glyph glyph-name="K" unicode="K" horiz-adv-x="493" 
d="M361 0l-247 274v-274h-64v664h64v-284l243 284h90l-288 -337l294 -327h-92z" />
    <glyph glyph-name="Kcommaaccent" unicode="&#x136;" horiz-adv-x="493" 
d="M159 327l294 -327h-92l-247 274v-274h-64v664h64v-284l243 284h90zM179 -152l41 152h71l-50 -152h-62z" />
    <glyph glyph-name="L" unicode="L" horiz-adv-x="376" 
d="M119 68h217v-68h-286v665h69v-597z" />
    <glyph glyph-name="Lacute" unicode="&#x139;" horiz-adv-x="376" 
d="M187 877l-54 -163h-62l46 163h70zM119 68h217v-68h-286v665h69v-597z" />
    <glyph glyph-name="Lcaron" unicode="&#x13d;" horiz-adv-x="376" 
d="M218 841l-127 -131l-133 131h78l54 -53l52 53h76zM119 68h217v-68h-286v665h69v-597z" />
    <glyph glyph-name="Lcommaaccent" unicode="&#x13b;" horiz-adv-x="376" 
d="M119 68h217v-68h-102l-50 -152h-62l41 152h-113v665h69v-597z" />
    <glyph glyph-name="Lslash" unicode="&#x141;" horiz-adv-x="482" 
d="M225 68h217v-68h-286v128l-39 -73h-77l116 216v394h69v-266l114 212h77l-191 -355v-188z" />
    <glyph glyph-name="M" unicode="M" horiz-adv-x="743" 
d="M608 665h85v-663h-69v566l-224 -324h-58l-224 324v-568h-68v665h84l237 -343z" />
    <glyph glyph-name="N" unicode="N" horiz-adv-x="585" 
d="M467 665h68v-665h-81l-335 537v-537h-69v665h72l345 -552v552z" />
    <glyph glyph-name="Nacute" unicode="&#x143;" horiz-adv-x="585" 
d="M320 877h70l-54 -163h-62zM467 665h68v-665h-81l-335 537v-537h-69v665h72l345 -552v552z" />
    <glyph glyph-name="Ncaron" unicode="&#x147;" horiz-adv-x="585" 
d="M345 841h76l-127 -131l-133 131h78l54 -53zM467 665h68v-665h-81l-335 537v-537h-69v665h72l345 -552v552z" />
    <glyph glyph-name="Ncommaaccent" unicode="&#x145;" horiz-adv-x="585" 
d="M467 665h68v-665h-81l-335 537v-537h-69v665h72l345 -552v552zM339 0l-50 -152h-62l41 152h71z" />
    <glyph glyph-name="Ntilde" unicode="&#xd1;" horiz-adv-x="585" 
d="M402 801l45 -35c-25 -39 -50 -61 -80 -67c-32 -6 -61 9 -86 22c-18 9 -36 18 -54 19c-17 0 -32 -21 -39 -33c-1 -3 -3 -6 -4 -9l-45 36c7 13 16 25 27 35c18 19 40 28 63 27c30 -1 56 -14 78 -25c20 -10 36 -18 49 -16c19 2 32 18 46 46zM467 665h68v-665h-81l-335 537
v-537h-69v665h72l345 -552v552z" />
    <glyph glyph-name="O" unicode="O" horiz-adv-x="747" 
d="M373 -5c-184 0 -333 149 -333 333s149 334 333 334s334 -150 334 -334s-150 -333 -334 -333zM373 63c146 0 265 119 265 265s-119 265 -265 265s-265 -119 -265 -265s119 -265 265 -265z" />
    <glyph glyph-name="Oacute" unicode="&#xd3;" horiz-adv-x="747" 
d="M401 877h70l-54 -163h-62zM373 -5c-184 0 -333 149 -333 333s149 334 333 334s334 -150 334 -334s-150 -333 -334 -333zM373 63c146 0 265 119 265 265s-119 265 -265 265s-265 -119 -265 -265s119 -265 265 -265z" />
    <glyph glyph-name="Ocircumflex" unicode="&#xd4;" horiz-adv-x="747" 
d="M428 710l-52 53l-54 -53h-78l133 131l127 -131h-76zM373 -5c-184 0 -333 149 -333 333s149 334 333 334s334 -150 334 -334s-150 -333 -334 -333zM373 63c146 0 265 119 265 265s-119 265 -265 265s-265 -119 -265 -265s119 -265 265 -265z" />
    <glyph glyph-name="Odieresis" unicode="&#xd6;" horiz-adv-x="747" 
d="M254 710c25 0 45 20 45 44s-20 44 -45 44c-24 0 -44 -20 -44 -44s20 -44 44 -44zM432 710c25 0 45 20 45 44s-20 44 -45 44c-24 0 -44 -20 -44 -44s20 -44 44 -44zM373 -5c-184 0 -333 149 -333 333s149 334 333 334s334 -150 334 -334s-150 -333 -334 -333zM373 63
c146 0 265 119 265 265s-119 265 -265 265s-265 -119 -265 -265s119 -265 265 -265z" />
    <glyph glyph-name="Ograve" unicode="&#xd2;" horiz-adv-x="747" 
d="M353 877l46 -163h-62l-54 163h70zM373 -5c-184 0 -333 149 -333 333s149 334 333 334s334 -150 334 -334s-150 -333 -334 -333zM373 63c146 0 265 119 265 265s-119 265 -265 265s-265 -119 -265 -265s119 -265 265 -265z" />
    <glyph glyph-name="Ohungarumlaut" unicode="&#x150;" horiz-adv-x="747" 
d="M344 876h70l-54 -163h-62zM457 876h70l-54 -163h-62zM373 -5c-184 0 -333 149 -333 333s149 334 333 334s334 -150 334 -334s-150 -333 -334 -333zM373 63c146 0 265 119 265 265s-119 265 -265 265s-265 -119 -265 -265s119 -265 265 -265z" />
    <glyph glyph-name="Omacron" unicode="&#x14c;" horiz-adv-x="747" 
d="M534 735h-321v50h321v-50zM373 -5c-184 0 -333 149 -333 333s149 334 333 334s334 -150 334 -334s-150 -333 -334 -333zM373 63c146 0 265 119 265 265s-119 265 -265 265s-265 -119 -265 -265s119 -265 265 -265z" />
    <glyph glyph-name="Oslash" unicode="&#xd8;" horiz-adv-x="747" 
d="M558 606c90 -60 149 -163 149 -278c0 -184 -150 -333 -334 -333c-46 0 -89 9 -129 26l-11 -21h-77l29 53c-88 60 -145 161 -145 275c0 184 149 334 333 334c44 0 87 -9 126 -25l15 29h77zM108 328c0 -88 43 -166 109 -214l249 462c-29 11 -60 17 -93 17
c-146 0 -265 -119 -265 -265zM373 63c146 0 265 119 265 265c0 89 -44 168 -112 216l-249 -463c30 -12 62 -18 96 -18z" />
    <glyph glyph-name="Otilde" unicode="&#xd5;" horiz-adv-x="747" 
d="M483 801l45 -35c-25 -39 -50 -61 -80 -67c-32 -6 -61 9 -86 22c-18 9 -36 18 -54 19c-17 0 -32 -21 -39 -33c-1 -3 -3 -6 -4 -9l-45 36c7 13 16 25 27 35c18 19 40 28 63 27c30 -1 56 -14 78 -25c20 -10 36 -18 49 -16c19 2 32 18 46 46zM373 -5
c-184 0 -333 149 -333 333s149 334 333 334s334 -150 334 -334s-150 -333 -334 -333zM373 63c146 0 265 119 265 265s-119 265 -265 265s-265 -119 -265 -265s119 -265 265 -265z" />
    <glyph glyph-name="OE" unicode="&#x152;" horiz-adv-x="1043" 
d="M1003 597h-296v-233h199v-64h-199v-232h296v-68h-364v127c-61 -80 -158 -132 -266 -132c-184 0 -333 149 -333 333s149 334 333 334c108 0 205 -52 266 -132v135h364v-68zM373 63c146 0 265 119 265 265s-119 265 -265 265s-265 -119 -265 -265s119 -265 265 -265z" />
    <glyph glyph-name="P" unicode="P" horiz-adv-x="490" 
d="M236 665c117 0 214 -96 214 -213s-97 -212 -214 -212h-117v-240h-69v665h186zM236 307c80 0 145 65 145 145s-65 144 -145 144h-117v-289h117z" />
    <glyph glyph-name="Thorn" unicode="&#xde;" horiz-adv-x="490" 
d="M236 545c117 0 214 -96 214 -213s-97 -212 -214 -212h-117v-120h-69v665h69v-120h117zM236 187c80 0 145 65 145 145s-65 144 -145 144h-117v-289h117z" />
    <glyph glyph-name="Q" unicode="Q" horiz-adv-x="747" 
d="M707 333c0 -108 -52 -204 -132 -265h132v-68h-331h-3c-184 0 -333 149 -333 333s149 334 333 334s334 -150 334 -334zM108 333c0 -146 119 -265 265 -265s265 119 265 265s-119 265 -265 265s-265 -119 -265 -265z" />
    <glyph glyph-name="R" unicode="R" horiz-adv-x="472" 
d="M220 239h-3l215 -239h-92l-215 239h-6v-239h-69v664h170c117 0 212 -95 212 -213c0 -117 -95 -212 -212 -212zM220 596h-101v-289h101c79 0 144 65 144 144c0 80 -65 145 -144 145z" />
    <glyph glyph-name="Racute" unicode="&#x154;" horiz-adv-x="472" 
d="M333 877l-54 -163h-62l46 163h70zM220 239h-3l215 -239h-92l-215 239h-6v-239h-69v664h170c117 0 212 -95 212 -213c0 -117 -95 -212 -212 -212zM220 596h-101v-289h101c79 0 144 65 144 144c0 80 -65 145 -144 145z" />
    <glyph glyph-name="Rcaron" unicode="&#x158;" horiz-adv-x="472" 
d="M364 841l-127 -131l-133 131h78l54 -53l52 53h76zM220 239h-3l215 -239h-92l-215 239h-6v-239h-69v664h170c117 0 212 -95 212 -213c0 -117 -95 -212 -212 -212zM220 596h-101v-289h101c79 0 144 65 144 144c0 80 -65 145 -144 145z" />
    <glyph glyph-name="Rcommaaccent" unicode="&#x156;" horiz-adv-x="472" 
d="M220 239h-3l215 -239h-92l-215 239h-6v-239h-69v664h170c117 0 212 -95 212 -213c0 -117 -95 -212 -212 -212zM220 596h-101v-289h101c79 0 144 65 144 144c0 80 -65 145 -144 145zM170 -152l41 152h71l-50 -152h-62z" />
    <glyph glyph-name="S" unicode="S" horiz-adv-x="536" 
d="M424 471v1c-3 21 -10 45 -24 66c-26 40 -68 60 -129 60c-49 0 -86 -11 -109 -34c-27 -28 -31 -66 -31 -87c0 -90 62 -107 129 -112c77 -7 128 -20 165 -44c47 -29 71 -76 71 -138c0 -49 -20 -95 -56 -129c-43 -42 -103 -60 -167 -60c-70 0 -128 20 -169 59
c-35 32 -57 77 -64 132h69c6 -35 21 -62 42 -82c31 -29 79 -43 139 -40c82 5 137 53 137 120c0 63 -28 101 -173 113c-127 11 -192 71 -192 181c0 54 18 102 52 135c36 36 88 55 156 55h1c147 -1 210 -96 222 -196h-69z" />
    <glyph glyph-name="Sacute" unicode="&#x15a;" horiz-adv-x="536" 
d="M295 877h70l-54 -163h-62zM424 471v1c-3 21 -10 45 -24 66c-26 40 -68 60 -129 60c-49 0 -86 -11 -109 -34c-27 -28 -31 -66 -31 -87c0 -90 62 -107 129 -112c77 -7 128 -20 165 -44c47 -29 71 -76 71 -138c0 -49 -20 -95 -56 -129c-43 -42 -103 -60 -167 -60
c-70 0 -128 20 -169 59c-35 32 -57 77 -64 132h69c6 -35 21 -62 42 -82c31 -29 79 -43 139 -40c82 5 137 53 137 120c0 63 -28 101 -173 113c-127 11 -192 71 -192 181c0 54 18 102 52 135c36 36 88 55 156 55h1c147 -1 210 -96 222 -196h-69z" />
    <glyph glyph-name="Scaron" unicode="&#x160;" horiz-adv-x="536" 
d="M320 841h76l-127 -131l-133 131h78l54 -53zM424 471v1c-3 21 -10 45 -24 66c-26 40 -68 60 -129 60c-49 0 -86 -11 -109 -34c-27 -28 -31 -66 -31 -87c0 -90 62 -107 129 -112c77 -7 128 -20 165 -44c47 -29 71 -76 71 -138c0 -49 -20 -95 -56 -129
c-43 -42 -103 -60 -167 -60c-70 0 -128 20 -169 59c-35 32 -57 77 -64 132h69c6 -35 21 -62 42 -82c31 -29 79 -43 139 -40c82 5 137 53 137 120c0 63 -28 101 -173 113c-127 11 -192 71 -192 181c0 54 18 102 52 135c36 36 88 55 156 55h1c147 -1 210 -96 222 -196h-69z
" />
    <glyph glyph-name="Scedilla" unicode="&#x15e;" horiz-adv-x="536" 
d="M425 321c47 -29 71 -76 71 -138c0 -49 -20 -95 -56 -129c-41 -40 -98 -58 -158 -60l-6 -14c44 -9 77 -48 77 -94c0 -53 -43 -96 -96 -96c-24 0 -47 9 -65 25l35 38c8 -7 19 -11 30 -11c24 0 44 20 44 44s-20 45 -44 45c-7 0 -12 -2 -18 -4l-20 47l9 23
c-50 7 -92 26 -124 56c-35 32 -57 77 -64 132h69c6 -35 21 -62 42 -82c31 -29 79 -43 139 -40c82 5 137 53 137 120c0 63 -28 101 -173 113c-127 11 -192 71 -192 181c0 54 18 102 52 135c36 36 88 55 156 55h1c147 -1 210 -96 222 -196h-69v1c-3 21 -10 45 -24 66
c-26 40 -68 60 -129 60c-49 0 -86 -11 -109 -34c-27 -28 -31 -66 -31 -87c0 -90 62 -107 129 -112c77 -7 128 -20 165 -44z" />
    <glyph glyph-name="T" unicode="T" horiz-adv-x="490" 
d="M450 665v-67h-171v-598h-68v598h-171v67h410z" />
    <glyph glyph-name="Tbar" unicode="&#x166;" horiz-adv-x="490" 
d="M497 363v-60h-218v-303h-68v303h-218v60h218v235h-171v67h410v-67h-171v-235h218z" />
    <glyph glyph-name="Tcaron" unicode="&#x164;" horiz-adv-x="490" 
d="M373 841l-127 -131l-133 131h78l54 -53l52 53h76zM450 665v-67h-171v-598h-68v598h-171v67h410z" />
    <glyph glyph-name="uni0162" unicode="&#x162;" horiz-adv-x="490" 
d="M279 0h-18l-8 -20c44 -9 77 -48 77 -94c0 -53 -43 -96 -96 -96c-24 0 -47 9 -65 25l35 38c8 -7 19 -11 30 -11c24 0 44 20 44 44s-20 45 -44 45c-7 0 -12 -2 -18 -4l-20 47l15 38v586h-171v67h410v-67h-171v-598z" />
    <glyph glyph-name="U" unicode="U" horiz-adv-x="564" 
d="M282 -7c-128 0 -232 105 -232 232v440h67v-440c0 -92 73 -163 165 -163s166 71 166 163v440h66v-440c0 -127 -104 -232 -232 -232z" />
    <glyph glyph-name="Uacute" unicode="&#xda;" horiz-adv-x="564" 
d="M309 877h70l-54 -163h-62zM282 -7c-128 0 -232 105 -232 232v440h67v-440c0 -92 73 -163 165 -163s166 71 166 163v440h66v-440c0 -127 -104 -232 -232 -232z" />
    <glyph glyph-name="Ucircumflex" unicode="&#xdb;" horiz-adv-x="564" 
d="M336 710l-52 53l-54 -53h-78l133 131l127 -131h-76zM282 -7c-128 0 -232 105 -232 232v440h67v-440c0 -92 73 -163 165 -163s166 71 166 163v440h66v-440c0 -127 -104 -232 -232 -232z" />
    <glyph glyph-name="Udieresis" unicode="&#xdc;" horiz-adv-x="564" 
d="M162 710c25 0 45 20 45 44s-20 44 -45 44c-24 0 -44 -20 -44 -44s20 -44 44 -44zM340 710c25 0 45 20 45 44s-20 44 -45 44c-24 0 -44 -20 -44 -44s20 -44 44 -44zM282 -7c-128 0 -232 105 -232 232v440h67v-440c0 -92 73 -163 165 -163s166 71 166 163v440h66v-440
c0 -127 -104 -232 -232 -232z" />
    <glyph glyph-name="Ugrave" unicode="&#xd9;" horiz-adv-x="564" 
d="M261 877l46 -163h-62l-54 163h70zM282 -7c-128 0 -232 105 -232 232v440h67v-440c0 -92 73 -163 165 -163s166 71 166 163v440h66v-440c0 -127 -104 -232 -232 -232z" />
    <glyph glyph-name="Uhungarumlaut" unicode="&#x170;" horiz-adv-x="564" 
d="M252 876h70l-54 -163h-62zM365 876h70l-54 -163h-62zM282 -7c-128 0 -232 105 -232 232v440h67v-440c0 -92 73 -163 165 -163s166 71 166 163v440h66v-440c0 -127 -104 -232 -232 -232z" />
    <glyph glyph-name="Umacron" unicode="&#x16a;" horiz-adv-x="564" 
d="M442 735h-321v50h321v-50zM282 -7c-128 0 -232 105 -232 232v440h67v-440c0 -92 73 -163 165 -163s166 71 166 163v440h66v-440c0 -127 -104 -232 -232 -232z" />
    <glyph glyph-name="Uogonek" unicode="&#x172;" horiz-adv-x="564" 
d="M448 665h66v-440c0 -116 -86 -213 -198 -230l-1 -55s-14 2 -24 0c-21 -2 -38 -18 -42 -38c-5 -24 10 -48 34 -54c3 -1 31 -7 53 17l40 -37c-24 -28 -53 -35 -74 -36c-16 -1 -27 1 -32 2c-52 13 -85 66 -74 118c7 37 32 65 66 77v5c-119 10 -212 111 -212 231v440h67v-440
c0 -92 73 -163 165 -163s166 71 166 163v440z" />
    <glyph glyph-name="Uring" unicode="&#x16e;" horiz-adv-x="564" 
d="M282 701c-30 0 -58 15 -76 41c-13 20 -18 44 -13 68s19 44 39 57c41 28 98 16 125 -25c28 -42 16 -98 -25 -126c-16 -10 -33 -15 -50 -15zM282 841c-10 0 -19 -2 -28 -8c-11 -7 -18 -18 -21 -31c-2 -13 0 -26 7 -37c15 -23 46 -29 69 -14s29 45 14 68
c-10 14 -25 22 -41 22zM282 -7c-128 0 -232 105 -232 232v440h67v-440c0 -92 73 -163 165 -163s166 71 166 163v440h66v-440c0 -127 -104 -232 -232 -232z" />
    <glyph glyph-name="V" unicode="V" horiz-adv-x="631" 
d="M359 1h-87l-232 665h73l203 -581l203 581h72z" />
    <glyph glyph-name="W" unicode="W" horiz-adv-x="926" 
d="M113 666l203 -566l112 321l-88 245h73l88 -245l116 -321l196 566h73l-232 -666h-74l-115 319l-111 -319h-75l-239 666h73z" />
    <glyph glyph-name="Wacute" unicode="&#x1e82;" horiz-adv-x="926" 
d="M490 877h70l-54 -163h-62zM113 666l203 -566l112 321l-88 245h73l88 -245l116 -321l196 566h73l-232 -666h-74l-115 319l-111 -319h-75l-239 666h73z" />
    <glyph glyph-name="Wcircumflex" unicode="&#x174;" horiz-adv-x="926" 
d="M517 710l-52 53l-54 -53h-78l133 131l127 -131h-76zM113 666l203 -566l112 321l-88 245h73l88 -245l116 -321l196 566h73l-232 -666h-74l-115 319l-111 -319h-75l-239 666h73z" />
    <glyph glyph-name="Wdieresis" unicode="&#x1e84;" horiz-adv-x="926" 
d="M343 710c25 0 45 20 45 44s-20 44 -45 44c-24 0 -44 -20 -44 -44s20 -44 44 -44zM521 710c25 0 45 20 45 44s-20 44 -45 44c-24 0 -44 -20 -44 -44s20 -44 44 -44zM113 666l203 -566l112 321l-88 245h73l88 -245l116 -321l196 566h73l-232 -666h-74l-115 319l-111 -319
h-75l-239 666h73z" />
    <glyph glyph-name="Wgrave" unicode="&#x1e80;" horiz-adv-x="926" 
d="M442 877l46 -163h-62l-54 163h70zM113 666l203 -566l112 321l-88 245h73l88 -245l116 -321l196 566h73l-232 -666h-74l-115 319l-111 -319h-75l-239 666h73z" />
    <glyph glyph-name="X" unicode="X" horiz-adv-x="570" 
d="M530 665l-205 -332l205 -333h-81l-164 267l-165 -267h-80l205 332l-205 333h80l165 -268l165 268h80z" />
    <glyph glyph-name="Y" unicode="Y" horiz-adv-x="560" 
d="M520 665l-205 -420v-245h-69v243l-206 422h76l164 -335l164 335h76z" />
    <glyph glyph-name="Yacute" unicode="&#xdd;" horiz-adv-x="560" 
d="M307 877h70l-54 -163h-62zM520 665l-205 -420v-245h-69v243l-206 422h76l164 -335l164 335h76z" />
    <glyph glyph-name="Ycircumflex" unicode="&#x176;" horiz-adv-x="560" 
d="M334 710l-52 53l-54 -53h-78l133 131l127 -131h-76zM520 665l-205 -420v-245h-69v243l-206 422h76l164 -335l164 335h76z" />
    <glyph glyph-name="Ydieresis" unicode="&#x178;" horiz-adv-x="560" 
d="M160 710c25 0 45 20 45 44s-20 44 -45 44c-24 0 -44 -20 -44 -44s20 -44 44 -44zM338 710c25 0 45 20 45 44s-20 44 -45 44c-24 0 -44 -20 -44 -44s20 -44 44 -44zM520 665l-205 -420v-245h-69v243l-206 422h76l164 -335l164 335h76z" />
    <glyph glyph-name="Ygrave" unicode="&#x1ef2;" horiz-adv-x="560" 
d="M259 877l46 -163h-62l-54 163h70zM520 665l-205 -420v-245h-69v243l-206 422h76l164 -335l164 335h76z" />
    <glyph glyph-name="Z" unicode="Z" horiz-adv-x="532" 
d="M492 69v-69h-452v66l368 531h-368v68h452v-68l-367 -528h367z" />
    <glyph glyph-name="Zacute" unicode="&#x179;" horiz-adv-x="532" 
d="M293 877h70l-54 -163h-62zM492 69v-69h-452v66l368 531h-368v68h452v-68l-367 -528h367z" />
    <glyph glyph-name="Zcaron" unicode="&#x17d;" horiz-adv-x="532" 
d="M318 841h76l-127 -131l-133 131h78l54 -53zM492 69v-69h-452v66l368 531h-368v68h452v-68l-367 -528h367z" />
    <glyph glyph-name="Zdotaccent" unicode="&#x17b;" horiz-adv-x="532" 
d="M235 710c25 0 45 20 45 44s-20 44 -45 44c-24 0 -44 -20 -44 -44s20 -44 44 -44zM492 69v-69h-452v66l368 531h-368v68h452v-68l-367 -528h367z" />
    <glyph glyph-name="a" unicode="a" horiz-adv-x="595" 
d="M476 487h69v-487h-69v92c-47 -66 -111 -97 -184 -97c-140 0 -252 112 -252 251c0 140 112 252 252 252c108 0 164 -61 184 -93v82zM292 63c101 0 183 82 183 183c0 102 -82 184 -183 184c-102 0 -184 -82 -184 -184c0 -101 82 -183 184 -183z" />
    <glyph glyph-name="aacute" unicode="&#xe1;" horiz-adv-x="595" 
d="M325 712h70l-54 -163h-62zM476 487h69v-487h-69v92c-47 -66 -111 -97 -184 -97c-140 0 -252 112 -252 251c0 140 112 252 252 252c108 0 164 -61 184 -93v82zM292 63c101 0 183 82 183 183c0 102 -82 184 -183 184c-102 0 -184 -82 -184 -184c0 -101 82 -183 184 -183z
" />
    <glyph glyph-name="abreve" unicode="&#x103;" horiz-adv-x="595" 
d="M378 682h55c-3 -40 -24 -78 -61 -102c-23 -15 -49 -23 -74 -23c-44 0 -88 22 -114 61c-13 20 -20 42 -22 64h55c2 -11 6 -23 13 -33c25 -38 75 -48 112 -23c20 13 33 34 36 56zM476 487h69v-487h-69v92c-47 -66 -111 -97 -184 -97c-140 0 -252 112 -252 251
c0 140 112 252 252 252c108 0 164 -61 184 -93v82zM292 63c101 0 183 82 183 183c0 102 -82 184 -183 184c-102 0 -184 -82 -184 -184c0 -101 82 -183 184 -183z" />
    <glyph glyph-name="acircumflex" unicode="&#xe2;" horiz-adv-x="595" 
d="M352 545l-52 53l-54 -53h-78l133 131l127 -131h-76zM476 487h69v-487h-69v92c-47 -66 -111 -97 -184 -97c-140 0 -252 112 -252 251c0 140 112 252 252 252c108 0 164 -61 184 -93v82zM292 63c101 0 183 82 183 183c0 102 -82 184 -183 184c-102 0 -184 -82 -184 -184
c0 -101 82 -183 184 -183z" />
    <glyph glyph-name="adieresis" unicode="&#xe4;" horiz-adv-x="595" 
d="M178 545c25 0 45 20 45 44s-20 44 -45 44c-24 0 -44 -20 -44 -44s20 -44 44 -44zM356 545c25 0 45 20 45 44s-20 44 -45 44c-24 0 -44 -20 -44 -44s20 -44 44 -44zM476 487h69v-487h-69v92c-47 -66 -111 -97 -184 -97c-140 0 -252 112 -252 251c0 140 112 252 252 252
c108 0 164 -61 184 -93v82zM292 63c101 0 183 82 183 183c0 102 -82 184 -183 184c-102 0 -184 -82 -184 -184c0 -101 82 -183 184 -183z" />
    <glyph glyph-name="agrave" unicode="&#xe0;" horiz-adv-x="595" 
d="M277 712l46 -163h-62l-54 163h70zM476 487h69v-487h-69v92c-47 -66 -111 -97 -184 -97c-140 0 -252 112 -252 251c0 140 112 252 252 252c108 0 164 -61 184 -93v82zM292 63c101 0 183 82 183 183c0 102 -82 184 -183 184c-102 0 -184 -82 -184 -184
c0 -101 82 -183 184 -183z" />
    <glyph glyph-name="amacron" unicode="&#x101;" horiz-adv-x="595" 
d="M458 570h-321v50h321v-50zM476 487h69v-487h-69v92c-47 -66 -111 -97 -184 -97c-140 0 -252 112 -252 251c0 140 112 252 252 252c108 0 164 -61 184 -93v82zM292 63c101 0 183 82 183 183c0 102 -82 184 -183 184c-102 0 -184 -82 -184 -184c0 -101 82 -183 184 -183z
" />
    <glyph glyph-name="aogonek" unicode="&#x105;" horiz-adv-x="595" 
d="M560 -136l40 -37c-24 -28 -53 -35 -74 -36c-16 -1 -27 1 -32 2c-52 13 -85 66 -74 118c7 37 32 65 66 77l1 12h-11v92c-47 -66 -111 -97 -184 -97c-140 0 -252 112 -252 251c0 140 112 252 252 252c108 0 164 -61 184 -93v82h69v-487h-5l-1 -61s-14 2 -24 0
c-21 -2 -38 -18 -42 -38c-5 -24 10 -48 34 -54c3 -1 31 -7 53 17zM292 63c101 0 183 82 183 183c0 102 -82 184 -183 184c-102 0 -184 -82 -184 -184c0 -101 82 -183 184 -183z" />
    <glyph glyph-name="aring" unicode="&#xe5;" horiz-adv-x="595" 
d="M298 536c-30 0 -58 15 -76 41c-13 20 -18 44 -13 68s19 44 39 57c41 28 98 16 125 -25c28 -42 16 -98 -25 -126c-16 -10 -33 -15 -50 -15zM298 676c-10 0 -19 -2 -28 -8c-11 -7 -18 -18 -21 -31c-2 -13 0 -26 7 -37c15 -23 46 -29 69 -14s29 45 14 68
c-10 14 -25 22 -41 22zM476 487h69v-487h-69v92c-47 -66 -111 -97 -184 -97c-140 0 -252 112 -252 251c0 140 112 252 252 252c108 0 164 -61 184 -93v82zM292 63c101 0 183 82 183 183c0 102 -82 184 -183 184c-102 0 -184 -82 -184 -184c0 -101 82 -183 184 -183z" />
    <glyph glyph-name="atilde" unicode="&#xe3;" horiz-adv-x="595" 
d="M407 636l45 -35c-25 -39 -50 -61 -80 -67c-32 -6 -61 9 -86 22c-18 9 -36 18 -54 19c-17 0 -32 -21 -39 -33c-1 -3 -3 -6 -4 -9l-45 36c7 13 16 25 27 35c18 19 40 28 63 27c30 -1 56 -14 78 -25c20 -10 36 -18 49 -16c19 2 32 18 46 46zM476 487h69v-487h-69v92
c-47 -66 -111 -97 -184 -97c-140 0 -252 112 -252 251c0 140 112 252 252 252c108 0 164 -61 184 -93v82zM292 63c101 0 183 82 183 183c0 102 -82 184 -183 184c-102 0 -184 -82 -184 -184c0 -101 82 -183 184 -183z" />
    <glyph glyph-name="ae" unicode="&#xe6;" horiz-adv-x="1020" 
d="M980 247c0 -11 -1 -23 -2 -34h-430c16 -85 91 -149 180 -149c66 0 123 34 156 86l59 -34c-44 -72 -124 -121 -215 -121c-72 0 -137 30 -183 79v-74h-69v92c-47 -66 -111 -97 -184 -97c-140 0 -252 112 -252 251c0 140 112 252 252 252c108 0 164 -61 184 -93v82h69v-66
c46 48 111 78 183 78c139 0 252 -112 252 -252zM548 278h360c0 85 -90 153 -180 153c-89 0 -180 -68 -180 -153zM292 63c101 0 183 82 183 183c0 102 -82 184 -183 184c-102 0 -184 -82 -184 -184c0 -101 82 -183 184 -183z" />
    <glyph glyph-name="b" unicode="b" horiz-adv-x="597" 
d="M50 664h67v-256c23 31 78 93 187 93c140 0 253 -114 253 -253s-113 -253 -253 -253c-74 0 -138 32 -187 98v-93h-67v664zM119 248c0 -102 83 -185 185 -185c101 0 184 83 184 185c0 101 -83 184 -184 184c-102 0 -185 -83 -185 -184z" />
    <glyph glyph-name="c" unicode="c" horiz-adv-x="524" 
d="M423 119l61 -35c-47 -55 -115 -89 -192 -89c-139 0 -252 113 -252 252s113 252 252 252c77 0 145 -34 192 -89l-61 -35c-33 34 -80 55 -131 55c-101 0 -184 -82 -184 -183s83 -183 184 -183c51 0 98 21 131 55z" />
    <glyph glyph-name="cacute" unicode="&#x107;" horiz-adv-x="524" 
d="M289 712h70l-54 -163h-62zM423 119l61 -35c-47 -55 -115 -89 -192 -89c-139 0 -252 113 -252 252s113 252 252 252c77 0 145 -34 192 -89l-61 -35c-33 34 -80 55 -131 55c-101 0 -184 -82 -184 -183s83 -183 184 -183c51 0 98 21 131 55z" />
    <glyph glyph-name="ccaron" unicode="&#x10d;" horiz-adv-x="524" 
d="M314 676h76l-127 -131l-133 131h78l54 -53zM423 119l61 -35c-47 -55 -115 -89 -192 -89c-139 0 -252 113 -252 252s113 252 252 252c77 0 145 -34 192 -89l-61 -35c-33 34 -80 55 -131 55c-101 0 -184 -82 -184 -183s83 -183 184 -183c51 0 98 21 131 55z" />
    <glyph glyph-name="ccedilla" unicode="&#xe7;" horiz-adv-x="524" 
d="M292 64c51 0 98 21 131 55l61 -35c-47 -55 -115 -89 -192 -89h-16l-6 -15c44 -9 77 -48 77 -94c0 -53 -43 -96 -96 -96c-24 0 -47 9 -65 25l35 38c8 -7 19 -11 30 -11c24 0 44 20 44 44s-20 45 -44 45c-7 0 -12 -2 -18 -4l-20 47l12 30c-107 30 -185 127 -185 243
c0 139 113 252 252 252c77 0 145 -34 192 -89l-61 -35c-33 34 -80 55 -131 55c-101 0 -184 -82 -184 -183s83 -183 184 -183z" />
    <glyph glyph-name="d" unicode="d" horiz-adv-x="597" 
d="M547 664v-664h-67v93c-49 -66 -113 -98 -187 -98c-140 0 -253 114 -253 253s113 253 253 253c109 0 164 -62 187 -93v256h67zM478 248c0 101 -83 184 -185 184c-101 0 -184 -83 -184 -184c0 -102 83 -185 184 -185c102 0 185 83 185 185z" />
    <glyph glyph-name="eth" unicode="&#xf0;" horiz-adv-x="484" 
d="M427 281c11 -25 17 -52 17 -83c0 -111 -90 -202 -202 -202s-202 91 -202 202c0 112 90 203 202 203c22 0 43 -4 63 -11l-56 133l-84 -24l-13 46l78 22l-42 98h74l34 -79l81 23l13 -46l-75 -21zM242 65c75 0 134 59 134 133c0 75 -59 134 -134 134
c-74 0 -134 -59 -134 -134c0 -74 60 -133 134 -133z" />
    <glyph glyph-name="dcaron" unicode="&#x10f;" horiz-adv-x="597" 
d="M351 841h76l-127 -131l-133 131h78l54 -53zM547 664v-664h-67v93c-49 -66 -113 -98 -187 -98c-140 0 -253 114 -253 253s113 253 253 253c109 0 164 -62 187 -93v256h67zM478 248c0 101 -83 184 -185 184c-101 0 -184 -83 -184 -184c0 -102 83 -185 184 -185
c102 0 185 83 185 185z" />
    <glyph glyph-name="dcroat" unicode="&#x111;" horiz-adv-x="638" 
d="M598 617v-60h-51v-557h-67v93c-49 -66 -113 -98 -187 -98c-140 0 -253 114 -253 253s113 253 253 253c109 0 164 -62 187 -93v149h-386v60h386v47h67v-47h51zM293 63c102 0 185 83 185 185c0 101 -83 184 -185 184c-101 0 -184 -83 -184 -184c0 -102 83 -185 184 -185z
" />
    <glyph glyph-name="e" unicode="e" horiz-adv-x="584" 
d="M542 213h-430c16 -85 91 -149 180 -149c66 0 123 34 156 86l59 -34c-44 -72 -124 -121 -215 -121c-139 0 -252 113 -252 252c0 140 113 252 252 252s252 -112 252 -252c0 -11 -1 -23 -2 -34zM292 431c-89 0 -180 -68 -180 -153h360c0 85 -90 153 -180 153z" />
    <glyph glyph-name="eacute" unicode="&#xe9;" horiz-adv-x="584" 
d="M319 712h70l-54 -163h-62zM542 213h-430c16 -85 91 -149 180 -149c66 0 123 34 156 86l59 -34c-44 -72 -124 -121 -215 -121c-139 0 -252 113 -252 252c0 140 113 252 252 252s252 -112 252 -252c0 -11 -1 -23 -2 -34zM292 431c-89 0 -180 -68 -180 -153h360
c0 85 -90 153 -180 153z" />
    <glyph glyph-name="ecaron" unicode="&#x11b;" horiz-adv-x="584" 
d="M344 676h76l-127 -131l-133 131h78l54 -53zM542 213h-430c16 -85 91 -149 180 -149c66 0 123 34 156 86l59 -34c-44 -72 -124 -121 -215 -121c-139 0 -252 113 -252 252c0 140 113 252 252 252s252 -112 252 -252c0 -11 -1 -23 -2 -34zM292 431c-89 0 -180 -68 -180 -153
h360c0 85 -90 153 -180 153z" />
    <glyph glyph-name="ecircumflex" unicode="&#xea;" horiz-adv-x="584" 
d="M346 545l-52 53l-54 -53h-78l133 131l127 -131h-76zM542 213h-430c16 -85 91 -149 180 -149c66 0 123 34 156 86l59 -34c-44 -72 -124 -121 -215 -121c-139 0 -252 113 -252 252c0 140 113 252 252 252s252 -112 252 -252c0 -11 -1 -23 -2 -34zM292 431
c-89 0 -180 -68 -180 -153h360c0 85 -90 153 -180 153z" />
    <glyph glyph-name="edieresis" unicode="&#xeb;" horiz-adv-x="584" 
d="M172 545c25 0 45 20 45 44s-20 44 -45 44c-24 0 -44 -20 -44 -44s20 -44 44 -44zM350 545c25 0 45 20 45 44s-20 44 -45 44c-24 0 -44 -20 -44 -44s20 -44 44 -44zM542 213h-430c16 -85 91 -149 180 -149c66 0 123 34 156 86l59 -34c-44 -72 -124 -121 -215 -121
c-139 0 -252 113 -252 252c0 140 113 252 252 252s252 -112 252 -252c0 -11 -1 -23 -2 -34zM292 431c-89 0 -180 -68 -180 -153h360c0 85 -90 153 -180 153z" />
    <glyph glyph-name="edotaccent" unicode="&#x117;" horiz-adv-x="584" 
d="M261 545c25 0 45 20 45 44s-20 44 -45 44c-24 0 -44 -20 -44 -44s20 -44 44 -44zM542 213h-430c16 -85 91 -149 180 -149c66 0 123 34 156 86l59 -34c-44 -72 -124 -121 -215 -121c-139 0 -252 113 -252 252c0 140 113 252 252 252s252 -112 252 -252
c0 -11 -1 -23 -2 -34zM292 431c-89 0 -180 -68 -180 -153h360c0 85 -90 153 -180 153z" />
    <glyph glyph-name="egrave" unicode="&#xe8;" horiz-adv-x="584" 
d="M271 712l46 -163h-62l-54 163h70zM542 213h-430c16 -85 91 -149 180 -149c66 0 123 34 156 86l59 -34c-44 -72 -124 -121 -215 -121c-139 0 -252 113 -252 252c0 140 113 252 252 252s252 -112 252 -252c0 -11 -1 -23 -2 -34zM292 431c-89 0 -180 -68 -180 -153h360
c0 85 -90 153 -180 153z" />
    <glyph glyph-name="emacron" unicode="&#x113;" horiz-adv-x="584" 
d="M452 570h-321v50h321v-50zM542 213h-430c16 -85 91 -149 180 -149c66 0 123 34 156 86l59 -34c-44 -72 -124 -121 -215 -121c-139 0 -252 113 -252 252c0 140 113 252 252 252s252 -112 252 -252c0 -11 -1 -23 -2 -34zM292 431c-89 0 -180 -68 -180 -153h360
c0 85 -90 153 -180 153z" />
    <glyph glyph-name="eogonek" unicode="&#x119;" horiz-adv-x="584" 
d="M544 247c0 -11 -1 -23 -2 -34h-430c16 -85 91 -149 180 -149c66 0 123 34 156 86l59 -34c-40 -66 -110 -112 -191 -120l-1 -58s-14 2 -24 0c-21 -2 -38 -18 -42 -38c-5 -24 10 -48 34 -54c3 -1 31 -7 53 17l40 -37c-24 -28 -53 -35 -74 -36c-16 -1 -27 1 -32 2
c-52 13 -85 66 -74 118c7 37 32 65 66 77l1 10c-126 14 -223 121 -223 250c0 140 113 252 252 252s252 -112 252 -252zM112 278h360c0 85 -90 153 -180 153c-89 0 -180 -68 -180 -153z" />
    <glyph glyph-name="f" unicode="f" horiz-adv-x="315" 
d="M285 602c-59 0 -108 -45 -114 -102h114v-68h-115v-432h-68v432h-52v68h52c7 95 86 170 183 170v-68z" />
    <glyph glyph-name="g" unicode="g" horiz-adv-x="594" 
d="M475 487h69v-449c0 -139 -113 -251 -252 -251c-80 0 -151 37 -197 94l61 36c33 -39 82 -62 136 -62c101 0 183 82 183 183v56c-47 -66 -111 -97 -184 -97c-138 0 -251 123 -251 258c0 136 113 245 251 245c107 0 164 -62 184 -93v80zM291 65c101 0 183 81 183 183
c0 101 -82 183 -183 183s-184 -82 -184 -183c0 -102 83 -183 184 -183z" />
    <glyph glyph-name="gcommaaccent" unicode="&#x123;" horiz-adv-x="594" 
d="M254 569l45 135h62l-38 -135h-69zM475 487h69v-449c0 -139 -113 -251 -252 -251c-80 0 -151 37 -197 94l61 36c33 -39 82 -62 136 -62c101 0 183 82 183 183v56c-47 -66 -111 -97 -184 -97c-138 0 -251 123 -251 258c0 136 113 245 251 245c107 0 164 -62 184 -93v80z
M291 65c101 0 183 81 183 183c0 101 -82 183 -183 183s-184 -82 -184 -183c0 -102 83 -183 184 -183z" />
    <glyph glyph-name="h" unicode="h" horiz-adv-x="497" 
d="M249 504c109 0 198 -88 198 -198v-306h-69v306c0 72 -58 130 -129 130c-72 0 -130 -58 -130 -130v-306h-69v667h69v-219c33 39 80 56 130 56z" />
    <glyph glyph-name="i" unicode="i" horiz-adv-x="209" 
d="M105 639c24 0 44 -20 44 -44c0 -25 -20 -45 -44 -45c-25 0 -45 20 -45 45c0 24 20 44 45 44zM70 500h69v-500h-69v500z" />
    <glyph glyph-name="dotlessi" unicode="&#x131;" horiz-adv-x="189" 
d="M60 500h69v-500h-69v500z" />
    <glyph glyph-name="iacute" unicode="&#xed;" horiz-adv-x="206" 
d="M96 719h70l-54 -163h-62zM60 500h69v-500h-69v500z" />
    <glyph glyph-name="icircumflex" unicode="&#xee;" horiz-adv-x="340" 
d="M224 552l-52 53l-54 -53h-78l133 131l127 -131h-76zM135 500h69v-500h-69v500z" />
    <glyph glyph-name="idieresis" unicode="&#xef;" horiz-adv-x="347" 
d="M84 552c25 0 45 20 45 44s-20 44 -45 44c-24 0 -44 -20 -44 -44s20 -44 44 -44zM262 552c25 0 45 20 45 44s-20 44 -45 44c-24 0 -44 -20 -44 -44s20 -44 44 -44zM139 500h69v-500h-69v500z" />
    <glyph glyph-name="igrave" unicode="&#xec;" horiz-adv-x="201" 
d="M110 719l46 -163h-62l-54 163h70zM92 500h69v-500h-69v500z" />
    <glyph glyph-name="imacron" unicode="&#x12b;" horiz-adv-x="401" 
d="M361 577h-321v50h321v-50zM166 500h69v-500h-69v500z" />
    <glyph glyph-name="iogonek" unicode="&#x12f;" horiz-adv-x="189" 
d="M64 552c-24 0 -44 20 -44 44s20 44 44 44c25 0 45 -20 45 -44s-20 -44 -45 -44zM143 -135l40 -37c-24 -28 -53 -35 -74 -36c-16 -1 -27 1 -32 2c-52 13 -85 66 -74 118c7 37 32 65 66 77l1 11h-10v500h69v-500h-6l-1 -60s-14 2 -24 0c-21 -2 -38 -18 -42 -38
c-5 -24 10 -48 34 -54c3 -1 31 -7 53 17z" />
    <glyph glyph-name="j" unicode="j" horiz-adv-x="244" 
d="M149 639c25 0 45 -20 45 -44c0 -25 -20 -45 -45 -45c-24 0 -44 20 -44 45c0 24 20 44 44 44zM0 -145v-68c102 0 184 82 184 183v530h-69v-530c0 -63 -51 -115 -115 -115z" />
    <glyph glyph-name="k" unicode="k" horiz-adv-x="432" 
d="M392 0h-91l-182 213v-213h-69v670h69v-318l164 148h103l-239 -215z" />
    <glyph glyph-name="kcommaaccent" unicode="&#x137;" horiz-adv-x="432" 
d="M147 285l245 -285h-91l-182 213v-213h-69v670h69v-318l164 148h103zM150 -152l41 152h71l-50 -152h-62z" />
    <glyph glyph-name="l" unicode="l" horiz-adv-x="168" 
d="M50 665h68v-665h-68v665z" />
    <glyph glyph-name="lacute" unicode="&#x13a;" horiz-adv-x="215" 
d="M105 869h70l-54 -163h-62zM50 665h68v-665h-68v665z" />
    <glyph glyph-name="lcaron" unicode="&#x13e;" horiz-adv-x="340" 
d="M224 833h76l-127 -131l-133 131h78l54 -53zM136 665h68v-665h-68v665z" />
    <glyph glyph-name="lcommaaccent" unicode="&#x13c;" horiz-adv-x="168" 
d="M50 665h68v-665h-68v665zM125 -28l-50 -152h-62l41 152h71z" />
    <glyph glyph-name="lslash" unicode="&#x142;" horiz-adv-x="456" 
d="M416 617l-154 -286v-331h-68v204l-77 -143h-77l154 286v318h68v-191l77 143h77z" />
    <glyph glyph-name="m" unicode="m" horiz-adv-x="765" 
d="M532 500c101 0 183 -82 183 -184v-316h-68v316c0 64 -52 115 -115 115c-64 0 -115 -51 -115 -114v-1v-316h-69v317c0 63 -52 114 -115 114s-115 -53 -115 -117v-314h-68v487h68v-39c27 32 72 52 115 52c62 0 116 -31 149 -77c34 46 88 77 150 77z" />
    <glyph glyph-name="n" unicode="n" horiz-adv-x="487" 
d="M248 500c110 0 199 -89 199 -198v-302h-69v302c0 71 -58 129 -130 129c-71 0 -130 -58 -130 -129v-302h-68v487h68v-44c34 39 81 57 130 57z" />
    <glyph glyph-name="nacute" unicode="&#x144;" horiz-adv-x="487" 
d="M271 712h70l-54 -163h-62zM248 500c110 0 199 -89 199 -198v-302h-69v302c0 71 -58 129 -130 129c-71 0 -130 -58 -130 -129v-302h-68v487h68v-44c34 39 81 57 130 57z" />
    <glyph glyph-name="ncaron" unicode="&#x148;" horiz-adv-x="487" 
d="M296 676h76l-127 -131l-133 131h78l54 -53zM248 500c110 0 199 -89 199 -198v-302h-69v302c0 71 -58 129 -130 129c-71 0 -130 -58 -130 -129v-302h-68v487h68v-44c34 39 81 57 130 57z" />
    <glyph glyph-name="ncommaaccent" unicode="&#x146;" horiz-adv-x="487" 
d="M248 500c110 0 199 -89 199 -198v-302h-69v302c0 71 -58 129 -130 129c-71 0 -130 -58 -130 -129v-302h-68v487h68v-44c34 39 81 57 130 57zM290 0l-50 -152h-62l41 152h71z" />
    <glyph glyph-name="ntilde" unicode="&#xf1;" horiz-adv-x="487" 
d="M353 636l45 -35c-25 -39 -50 -61 -80 -67c-32 -6 -61 9 -86 22c-18 9 -36 18 -54 19c-17 0 -32 -21 -39 -33c-1 -3 -3 -6 -4 -9l-45 36c7 13 16 25 27 35c18 19 40 28 63 27c30 -1 56 -14 78 -25c20 -10 36 -18 49 -16c19 2 32 18 46 46zM248 500c110 0 199 -89 199 -198
v-302h-69v302c0 71 -58 129 -130 129c-71 0 -130 -58 -130 -129v-302h-68v487h68v-44c34 39 81 57 130 57z" />
    <glyph glyph-name="o" unicode="o" horiz-adv-x="588" 
d="M293 -5c-139 0 -253 114 -253 253c0 141 114 255 253 255c141 0 255 -114 255 -255c0 -139 -114 -253 -255 -253zM293 62c103 0 186 84 186 186c0 103 -83 187 -186 187c-101 0 -185 -84 -185 -187c0 -102 84 -186 185 -186z" />
    <glyph glyph-name="oacute" unicode="&#xf3;" horiz-adv-x="588" 
d="M321 712h70l-54 -163h-62zM293 -5c-139 0 -253 114 -253 253c0 141 114 255 253 255c141 0 255 -114 255 -255c0 -139 -114 -253 -255 -253zM293 62c103 0 186 84 186 186c0 103 -83 187 -186 187c-101 0 -185 -84 -185 -187c0 -102 84 -186 185 -186z" />
    <glyph glyph-name="ocircumflex" unicode="&#xf4;" horiz-adv-x="588" 
d="M348 545l-52 53l-54 -53h-78l133 131l127 -131h-76zM293 -5c-139 0 -253 114 -253 253c0 141 114 255 253 255c141 0 255 -114 255 -255c0 -139 -114 -253 -255 -253zM293 62c103 0 186 84 186 186c0 103 -83 187 -186 187c-101 0 -185 -84 -185 -187
c0 -102 84 -186 185 -186z" />
    <glyph glyph-name="odieresis" unicode="&#xf6;" horiz-adv-x="588" 
d="M174 545c25 0 45 20 45 44s-20 44 -45 44c-24 0 -44 -20 -44 -44s20 -44 44 -44zM352 545c25 0 45 20 45 44s-20 44 -45 44c-24 0 -44 -20 -44 -44s20 -44 44 -44zM293 -5c-139 0 -253 114 -253 253c0 141 114 255 253 255c141 0 255 -114 255 -255
c0 -139 -114 -253 -255 -253zM293 62c103 0 186 84 186 186c0 103 -83 187 -186 187c-101 0 -185 -84 -185 -187c0 -102 84 -186 185 -186z" />
    <glyph glyph-name="ograve" unicode="&#xf2;" horiz-adv-x="588" 
d="M273 712l46 -163h-62l-54 163h70zM293 -5c-139 0 -253 114 -253 253c0 141 114 255 253 255c141 0 255 -114 255 -255c0 -139 -114 -253 -255 -253zM293 62c103 0 186 84 186 186c0 103 -83 187 -186 187c-101 0 -185 -84 -185 -187c0 -102 84 -186 185 -186z" />
    <glyph glyph-name="ohungarumlaut" unicode="&#x151;" horiz-adv-x="588" 
d="M264 711h70l-54 -163h-62zM377 711h70l-54 -163h-62zM293 -5c-139 0 -253 114 -253 253c0 141 114 255 253 255c141 0 255 -114 255 -255c0 -139 -114 -253 -255 -253zM293 62c103 0 186 84 186 186c0 103 -83 187 -186 187c-101 0 -185 -84 -185 -187
c0 -102 84 -186 185 -186z" />
    <glyph glyph-name="omacron" unicode="&#x14d;" horiz-adv-x="588" 
d="M454 570h-321v50h321v-50zM293 -5c-139 0 -253 114 -253 253c0 141 114 255 253 255c141 0 255 -114 255 -255c0 -139 -114 -253 -255 -253zM293 62c103 0 186 84 186 186c0 103 -83 187 -186 187c-101 0 -185 -84 -185 -187c0 -102 84 -186 185 -186z" />
    <glyph glyph-name="oslash" unicode="&#xf8;" horiz-adv-x="588" 
d="M442 455c64 -46 106 -122 106 -207c0 -139 -114 -253 -255 -253c-31 0 -61 6 -89 16l-51 -94h-77l68 127c-63 46 -104 120 -104 204c0 141 114 255 253 255c31 0 62 -6 89 -16l52 96h77zM108 248c0 -58 27 -110 69 -144l173 322c-18 6 -37 9 -57 9
c-101 0 -185 -84 -185 -187zM293 62c103 0 186 84 186 186c0 59 -27 112 -70 146l-173 -323c18 -6 37 -9 57 -9z" />
    <glyph glyph-name="otilde" unicode="&#xf5;" horiz-adv-x="588" 
d="M403 636l45 -35c-25 -39 -50 -61 -80 -67c-32 -6 -61 9 -86 22c-18 9 -36 18 -54 19c-17 0 -32 -21 -39 -33c-1 -3 -3 -6 -4 -9l-45 36c7 13 16 25 27 35c18 19 40 28 63 27c30 -1 56 -14 78 -25c20 -10 36 -18 49 -16c19 2 32 18 46 46zM293 -5
c-139 0 -253 114 -253 253c0 141 114 255 253 255c141 0 255 -114 255 -255c0 -139 -114 -253 -255 -253zM293 62c103 0 186 84 186 186c0 103 -83 187 -186 187c-101 0 -185 -84 -185 -187c0 -102 84 -186 185 -186z" />
    <glyph glyph-name="oe" unicode="&#x153;" horiz-adv-x="1024" 
d="M984 247c0 -11 -1 -23 -2 -34h-430c16 -85 91 -149 180 -149c66 0 123 34 156 86l59 -34c-44 -72 -124 -121 -215 -121c-93 0 -175 51 -218 126c-45 -75 -127 -126 -221 -126c-139 0 -253 114 -253 253c0 141 114 255 253 255c95 0 178 -52 221 -128
c44 74 125 124 218 124c139 0 252 -112 252 -252zM293 62c103 0 186 84 186 186c0 103 -83 187 -186 187c-101 0 -185 -84 -185 -187c0 -102 84 -186 185 -186zM552 278h360c0 85 -90 153 -180 153c-89 0 -180 -68 -180 -153z" />
    <glyph glyph-name="p" unicode="p" horiz-adv-x="595" 
d="M118 -213h-68v700h68v-83c47 66 112 98 185 98c139 0 252 -113 252 -252s-113 -252 -252 -252c-108 0 -165 62 -185 93v-304zM303 433c-101 0 -184 -82 -184 -183s83 -184 184 -184s183 83 183 184s-82 183 -183 183z" />
    <glyph glyph-name="thorn" unicode="&#xfe;" horiz-adv-x="595" 
d="M118 -173h-68v838h68v-261c47 66 112 98 185 98c139 0 252 -113 252 -252s-113 -252 -252 -252c-108 0 -165 62 -185 93v-264zM303 433c-101 0 -184 -82 -184 -183s83 -184 184 -184s183 83 183 184s-82 183 -183 183z" />
    <glyph glyph-name="q" unicode="q" horiz-adv-x="595" 
d="M477 -213v304c-20 -31 -77 -93 -185 -93c-139 0 -252 113 -252 252s113 252 252 252c73 0 138 -32 185 -98v83h68v-700h-68zM292 433c-101 0 -183 -82 -183 -183s82 -184 183 -184s184 83 184 184s-83 183 -184 183z" />
    <glyph glyph-name="r" unicode="r" horiz-adv-x="387" 
d="M279 426c-14 6 -29 10 -46 10c-63 0 -115 -52 -115 -115v-321h-68v321c0 73 42 136 103 165l2 1c24 11 50 17 78 17c43 0 82 -14 114 -39z" />
    <glyph glyph-name="racute" unicode="&#x155;" horiz-adv-x="387" 
d="M221 712h70l-54 -163h-62zM279 426c-14 6 -29 10 -46 10c-63 0 -115 -52 -115 -115v-321h-68v321c0 73 42 136 103 165l2 1c24 11 50 17 78 17c43 0 82 -14 114 -39z" />
    <glyph glyph-name="rcaron" unicode="&#x159;" horiz-adv-x="387" 
d="M246 676h76l-127 -131l-133 131h78l54 -53zM279 426c-14 6 -29 10 -46 10c-63 0 -115 -52 -115 -115v-321h-68v321c0 73 42 136 103 165l2 1c24 11 50 17 78 17c43 0 82 -14 114 -39z" />
    <glyph glyph-name="rcommaaccent" unicode="&#x157;" horiz-adv-x="387" 
d="M279 426c-14 6 -29 10 -46 10c-63 0 -115 -52 -115 -115v-321h-68v321c0 73 42 136 103 165l2 1c24 11 50 17 78 17c43 0 82 -14 114 -39zM122 -29l-50 -152h-62l41 152h71z" />
    <glyph glyph-name="s" unicode="s" horiz-adv-x="431" 
d="M110 134c5 -18 13 -33 25 -44c27 -24 66 -28 95 -26c55 3 92 35 92 79c0 131 -159 27 -248 125c-25 30 -37 66 -32 108c11 84 73 130 174 130h1c82 0 124 -39 145 -72c14 -23 22 -48 25 -69h-70c-2 11 -7 22 -13 33c-17 26 -46 39 -87 40c-98 0 -104 -49 -107 -70
c-3 -23 3 -40 16 -54c39 -47 132 -16 200 -52c43 -23 65 -63 65 -119c0 -39 -16 -75 -44 -102c-33 -32 -79 -46 -129 -46c-53 0 -98 16 -130 45c-25 24 -42 56 -48 94h70z" />
    <glyph glyph-name="sacute" unicode="&#x15b;" horiz-adv-x="431" 
d="M243 712h70l-54 -163h-62zM110 134c5 -18 13 -33 25 -44c27 -24 66 -28 95 -26c55 3 92 35 92 79c0 131 -159 27 -248 125c-25 30 -37 66 -32 108c11 84 73 130 174 130h1c82 0 124 -39 145 -72c14 -23 22 -48 25 -69h-70c-2 11 -7 22 -13 33c-17 26 -46 39 -87 40
c-98 0 -104 -49 -107 -70c-3 -23 3 -40 16 -54c39 -47 132 -16 200 -52c43 -23 65 -63 65 -119c0 -39 -16 -75 -44 -102c-33 -32 -79 -46 -129 -46c-53 0 -98 16 -130 45c-25 24 -42 56 -48 94h70z" />
    <glyph glyph-name="scaron" unicode="&#x161;" horiz-adv-x="431" 
d="M268 676h76l-127 -131l-133 131h78l54 -53zM110 134c5 -18 13 -33 25 -44c27 -24 66 -28 95 -26c55 3 92 35 92 79c0 131 -159 27 -248 125c-25 30 -37 66 -32 108c11 84 73 130 174 130h1c82 0 124 -39 145 -72c14 -23 22 -48 25 -69h-70c-2 11 -7 22 -13 33
c-17 26 -46 39 -87 40c-98 0 -104 -49 -107 -70c-3 -23 3 -40 16 -54c39 -47 132 -16 200 -52c43 -23 65 -63 65 -119c0 -39 -16 -75 -44 -102c-33 -32 -79 -46 -129 -46c-53 0 -98 16 -130 45c-25 24 -42 56 -48 94h70z" />
    <glyph glyph-name="scedilla" unicode="&#x15f;" horiz-adv-x="431" 
d="M326 262c43 -23 65 -63 65 -119c0 -39 -16 -75 -44 -102c-30 -29 -72 -44 -117 -46l-6 -15c44 -9 77 -48 77 -94c0 -53 -43 -96 -96 -96c-24 0 -47 9 -65 25l35 38c8 -7 19 -11 30 -11c24 0 44 20 44 44s-20 45 -44 45c-7 0 -12 -2 -18 -4l-20 47l10 25
c-36 6 -66 20 -89 41c-25 24 -42 56 -48 94h70c5 -18 13 -33 25 -44c27 -24 66 -28 95 -26c55 3 92 35 92 79c0 131 -159 27 -248 125c-25 30 -37 66 -32 108c11 84 73 130 174 130h1c82 0 124 -39 145 -72c14 -23 22 -48 25 -69h-70c-2 11 -7 22 -13 33
c-17 26 -46 39 -87 40c-98 0 -104 -49 -107 -70c-3 -23 3 -40 16 -54c39 -47 132 -16 200 -52z" />
    <glyph glyph-name="germandbls" unicode="&#xdf;" horiz-adv-x="493" 
d="M197 68v-68h72c102 0 184 82 184 183c0 68 -36 127 -90 159c40 34 66 84 66 141c0 101 -83 184 -184 184h-143v-1h-52v-666h68v299h151c64 0 116 -52 116 -116c0 -63 -52 -115 -116 -115h-72zM360 483c0 -64 -52 -116 -115 -116h-127v231h127c63 0 115 -52 115 -115z" />
    <glyph glyph-name="t" unicode="t" horiz-adv-x="315" 
d="M275 500v-68h-83v-432h-69v432h-83v68h83v165h69v-165h83z" />
    <glyph glyph-name="tbar" unicode="&#x167;" horiz-adv-x="584" 
d="M544 557h-218v-57h83v-68h-83v-432h-69v432h-83v68h83v57h-217v60h217v48h69v-48h218v-60z" />
    <glyph glyph-name="tcaron" unicode="&#x165;" horiz-adv-x="340" 
d="M300 833l-127 -131l-133 131h78l54 -53l52 53h76zM206 665v-165h83v-68h-83v-432h-69v432h-83v68h83v165h69z" />
    <glyph glyph-name="uni0163" unicode="&#x163;" horiz-adv-x="315" 
d="M192 0h-12l-14 -34c44 -9 77 -48 77 -94c0 -53 -43 -96 -96 -96c-24 0 -47 9 -65 25l35 38c8 -7 19 -11 30 -11c24 0 44 20 44 44s-20 45 -44 45c-7 0 -12 -2 -18 -4l-20 47l16 40h-2v432h-83v68h83v165h69v-165h83v-68h-83v-432z" />
    <glyph glyph-name="u" unicode="u" horiz-adv-x="497" 
d="M249 -4c-110 0 -199 89 -199 198v306h69v-306c0 -71 58 -130 130 -130c71 0 130 59 130 130v306h68v-495h-68v48c-34 -39 -81 -57 -130 -57z" />
    <glyph glyph-name="uacute" unicode="&#xfa;" horiz-adv-x="497" 
d="M281 712h70l-54 -163h-62zM249 -4c-110 0 -199 89 -199 198v306h69v-306c0 -71 58 -130 130 -130c71 0 130 59 130 130v306h68v-495h-68v48c-34 -39 -81 -57 -130 -57z" />
    <glyph glyph-name="ucircumflex" unicode="&#xfb;" horiz-adv-x="497" 
d="M308 545l-52 53l-54 -53h-78l133 131l127 -131h-76zM249 -4c-110 0 -199 89 -199 198v306h69v-306c0 -71 58 -130 130 -130c71 0 130 59 130 130v306h68v-495h-68v48c-34 -39 -81 -57 -130 -57z" />
    <glyph glyph-name="udieresis" unicode="&#xfc;" horiz-adv-x="497" 
d="M134 545c25 0 45 20 45 44s-20 44 -45 44c-24 0 -44 -20 -44 -44s20 -44 44 -44zM312 545c25 0 45 20 45 44s-20 44 -45 44c-24 0 -44 -20 -44 -44s20 -44 44 -44zM249 -4c-110 0 -199 89 -199 198v306h69v-306c0 -71 58 -130 130 -130c71 0 130 59 130 130v306h68v-495
h-68v48c-34 -39 -81 -57 -130 -57z" />
    <glyph glyph-name="ugrave" unicode="&#xf9;" horiz-adv-x="497" 
d="M233 712l46 -163h-62l-54 163h70zM249 -4c-110 0 -199 89 -199 198v306h69v-306c0 -71 58 -130 130 -130c71 0 130 59 130 130v306h68v-495h-68v48c-34 -39 -81 -57 -130 -57z" />
    <glyph glyph-name="uhungarumlaut" unicode="&#x171;" horiz-adv-x="497" 
d="M224 711h70l-54 -163h-62zM337 711h70l-54 -163h-62zM249 -4c-110 0 -199 89 -199 198v306h69v-306c0 -71 58 -130 130 -130c71 0 130 59 130 130v306h68v-495h-68v48c-34 -39 -81 -57 -130 -57z" />
    <glyph glyph-name="umacron" unicode="&#x16b;" horiz-adv-x="497" 
d="M414 570h-321v50h321v-50zM249 -4c-110 0 -199 89 -199 198v306h69v-306c0 -71 58 -130 130 -130c71 0 130 59 130 130v306h68v-495h-68v48c-34 -39 -81 -57 -130 -57z" />
    <glyph glyph-name="uogonek" unicode="&#x173;" horiz-adv-x="497" 
d="M462 -130l40 -37c-24 -28 -53 -35 -74 -36c-16 -1 -27 1 -32 2c-52 13 -85 66 -74 118c7 37 32 65 66 77l1 11h-10v48c-34 -39 -81 -57 -130 -57c-110 0 -199 89 -199 198v306h69v-306c0 -71 58 -130 130 -130c71 0 130 59 130 130v306h68v-495h-5l-1 -60s-14 2 -24 0
c-21 -2 -38 -18 -42 -38c-5 -24 10 -48 34 -54c3 -1 31 -7 53 17z" />
    <glyph glyph-name="uring" unicode="&#x16f;" horiz-adv-x="497" 
d="M254 536c-30 0 -58 15 -76 41c-13 20 -18 44 -13 68s19 44 39 57c41 28 98 16 125 -25c28 -42 16 -98 -25 -126c-16 -10 -33 -15 -50 -15zM254 676c-10 0 -19 -2 -28 -8c-11 -7 -18 -18 -21 -31c-2 -13 0 -26 7 -37c15 -23 46 -29 69 -14s29 45 14 68
c-10 14 -25 22 -41 22zM249 -4c-110 0 -199 89 -199 198v306h69v-306c0 -71 58 -130 130 -130c71 0 130 59 130 130v306h68v-495h-68v48c-34 -39 -81 -57 -130 -57z" />
    <glyph glyph-name="v" unicode="v" horiz-adv-x="547" 
d="M434 498h73l-197 -498h-73l-197 498h73l161 -403z" />
    <glyph glyph-name="w" unicode="w" horiz-adv-x="826" 
d="M713 500h73l-197 -500h-72l-103 259l-103 -259h-72l-199 500h74l161 -405l102 256l-59 149h74l161 -405z" />
    <glyph glyph-name="wacute" unicode="&#x1e83;" horiz-adv-x="826" 
d="M440 712h70l-54 -163h-62zM713 500h73l-197 -500h-72l-103 259l-103 -259h-72l-199 500h74l161 -405l102 256l-59 149h74l161 -405z" />
    <glyph glyph-name="wcircumflex" unicode="&#x175;" horiz-adv-x="826" 
d="M467 545l-52 53l-54 -53h-78l133 131l127 -131h-76zM713 500h73l-197 -500h-72l-103 259l-103 -259h-72l-199 500h74l161 -405l102 256l-59 149h74l161 -405z" />
    <glyph glyph-name="wdieresis" unicode="&#x1e85;" horiz-adv-x="826" 
d="M293 545c25 0 45 20 45 44s-20 44 -45 44c-24 0 -44 -20 -44 -44s20 -44 44 -44zM471 545c25 0 45 20 45 44s-20 44 -45 44c-24 0 -44 -20 -44 -44s20 -44 44 -44zM713 500h73l-197 -500h-72l-103 259l-103 -259h-72l-199 500h74l161 -405l102 256l-59 149h74l161 -405z
" />
    <glyph glyph-name="wgrave" unicode="&#x1e81;" horiz-adv-x="826" 
d="M392 712l46 -163h-62l-54 163h70zM713 500h73l-197 -500h-72l-103 259l-103 -259h-72l-199 500h74l161 -405l102 256l-59 149h74l161 -405z" />
    <glyph glyph-name="x" unicode="x" horiz-adv-x="470" 
d="M430 496l-155 -252l150 -244h-81l-109 178l-110 -178h-80l149 244l-154 252h80l115 -187l114 187h81z" />
    <glyph glyph-name="y" unicode="y" horiz-adv-x="524" 
d="M406 500h68v-496c0 -120 -97 -217 -217 -217c-77 0 -144 40 -183 100l60 34c26 -40 72 -66 123 -66c82 0 149 67 149 149v53c-39 -37 -91 -59 -149 -59c-118 0 -214 94 -217 211v291h68v-285c0 -82 67 -149 149 -149s149 67 149 149v285z" />
    <glyph glyph-name="yacute" unicode="&#xfd;" horiz-adv-x="524" 
d="M289 712h70l-54 -163h-62zM406 500h68v-496c0 -120 -97 -217 -217 -217c-77 0 -144 40 -183 100l60 34c26 -40 72 -66 123 -66c82 0 149 67 149 149v53c-39 -37 -91 -59 -149 -59c-118 0 -214 94 -217 211v291h68v-285c0 -82 67 -149 149 -149s149 67 149 149v285z" />
    <glyph glyph-name="ycircumflex" unicode="&#x177;" horiz-adv-x="524" 
d="M316 545l-52 53l-54 -53h-78l133 131l127 -131h-76zM406 500h68v-496c0 -120 -97 -217 -217 -217c-77 0 -144 40 -183 100l60 34c26 -40 72 -66 123 -66c82 0 149 67 149 149v53c-39 -37 -91 -59 -149 -59c-118 0 -214 94 -217 211v291h68v-285c0 -82 67 -149 149 -149
s149 67 149 149v285z" />
    <glyph glyph-name="ydieresis" unicode="&#xff;" horiz-adv-x="524" 
d="M142 545c25 0 45 20 45 44s-20 44 -45 44c-24 0 -44 -20 -44 -44s20 -44 44 -44zM320 545c25 0 45 20 45 44s-20 44 -45 44c-24 0 -44 -20 -44 -44s20 -44 44 -44zM406 500h68v-496c0 -120 -97 -217 -217 -217c-77 0 -144 40 -183 100l60 34c26 -40 72 -66 123 -66
c82 0 149 67 149 149v53c-39 -37 -91 -59 -149 -59c-118 0 -214 94 -217 211v291h68v-285c0 -82 67 -149 149 -149s149 67 149 149v285z" />
    <glyph glyph-name="ygrave" unicode="&#x1ef3;" horiz-adv-x="524" 
d="M241 712l46 -163h-62l-54 163h70zM406 500h68v-496c0 -120 -97 -217 -217 -217c-77 0 -144 40 -183 100l60 34c26 -40 72 -66 123 -66c82 0 149 67 149 149v53c-39 -37 -91 -59 -149 -59c-118 0 -214 94 -217 211v291h68v-285c0 -82 67 -149 149 -149s149 67 149 149v285
z" />
    <glyph glyph-name="z" unicode="z" horiz-adv-x="485" 
d="M133 68h312v-68h-405v68l313 359h-313v69h405v-69z" />
    <glyph glyph-name="zacute" unicode="&#x17a;" horiz-adv-x="485" 
d="M270 712h70l-54 -163h-62zM133 68h312v-68h-405v68l313 359h-313v69h405v-69z" />
    <glyph glyph-name="zcaron" unicode="&#x17e;" horiz-adv-x="485" 
d="M295 676h76l-127 -131l-133 131h78l54 -53zM133 68h312v-68h-405v68l313 359h-313v69h405v-69z" />
    <glyph glyph-name="zdotaccent" unicode="&#x17c;" horiz-adv-x="485" 
d="M212 545c25 0 45 20 45 44s-20 44 -45 44c-24 0 -44 -20 -44 -44s20 -44 44 -44zM133 68h312v-68h-405v68l313 359h-313v69h405v-69z" />
    <glyph glyph-name="zero" unicode="0" horiz-adv-x="504" 
d="M271 670h-38c-106 0 -193 -87 -193 -193v-289c0 -106 87 -193 193 -193h38c107 0 193 87 193 193v289c0 106 -86 193 -193 193zM271 602c34 0 65 -13 89 -37c23 -24 36 -55 36 -88v-289c0 -33 -13 -64 -36 -88c-24 -24 -55 -37 -89 -37h-38c-33 0 -64 13 -88 37
s-37 55 -37 88v289c0 33 13 64 37 88s55 37 88 37h38z" />
    <glyph glyph-name="one" unicode="1" horiz-adv-x="305" 
d="M255 665v-665h-68v580l-67 -110h-80l119 195h96z" />
    <glyph glyph-name="two" unicode="2" horiz-adv-x="447" 
d="M373 0h-327l-4 30c0 2 -8 62 6 128c19 94 71 153 150 172c52 13 140 47 140 134c0 73 -59 133 -132 133h-128v68h128c111 0 201 -90 201 -201c0 -53 -21 -99 -61 -135c-33 -30 -79 -52 -132 -65c-52 -13 -85 -52 -99 -118c-6 -29 -7 -57 -7 -78h265v-68z" />
    <glyph glyph-name="three" unicode="3" horiz-adv-x="413" 
d="M297 332c46 -33 76 -88 76 -149c0 -101 -82 -183 -183 -183h-150v68h150c64 0 115 51 115 115c0 63 -51 115 -115 115h-56v68h56c64 0 115 52 115 115c0 64 -51 115 -115 115h-150v69h150c101 0 183 -83 183 -184c0 -61 -30 -116 -76 -149z" />
    <glyph glyph-name="four" unicode="4" horiz-adv-x="504" 
d="M375 348v-105h89v-68h-89v-176h-67v176h-268l205 489h74l-179 -421h168v105h67z" />
    <glyph glyph-name="five" unicode="5" horiz-adv-x="465" 
d="M214 0h-159v68h159c73 0 133 60 133 133s-60 133 -133 133h-164v331h331v-68h-262v-195h95c111 0 201 -90 201 -201s-90 -201 -201 -201z" />
    <glyph glyph-name="six" unicode="6" horiz-adv-x="484" 
d="M242 401c112 0 202 -91 202 -203c0 -111 -90 -202 -202 -202s-202 91 -202 202c0 31 6 58 17 83l165 384h74l-117 -275c20 7 41 11 63 11zM242 65c74 0 134 59 134 133c0 75 -60 134 -134 134c-75 0 -134 -59 -134 -134c0 -74 59 -133 134 -133z" />
    <glyph glyph-name="seven" unicode="7" horiz-adv-x="428" 
d="M164 0l129 596h-253v69h338l-144 -665h-70z" />
    <glyph glyph-name="eight" unicode="8" horiz-adv-x="479" 
d="M422 274c44 -101 -2 -219 -103 -263c-26 -11 -53 -16 -79 -16c-77 0 -150 44 -183 119c-40 92 -6 197 76 248c-20 17 -36 38 -47 63c-37 85 2 184 86 221c22 9 45 14 67 14c65 0 127 -38 154 -101c31 -70 10 -150 -47 -197c33 -20 60 -50 76 -88zM146 529
c-10 -25 -9 -53 2 -77c13 -32 43 -54 76 -59h15h16c9 1 17 3 25 7c24 11 43 30 53 55s9 52 -1 77c-16 37 -53 60 -92 60h-1c-13 0 -27 -3 -40 -8c-24 -11 -43 -31 -53 -55zM292 73c67 29 98 107 68 174c-18 43 -58 72 -104 78c-5 -1 -11 -1 -16 -1c-6 0 -11 0 -17 1
c-12 -2 -24 -5 -36 -10c-67 -29 -97 -107 -68 -174c21 -48 68 -79 121 -79c18 0 36 4 52 11z" />
    <glyph glyph-name="nine" unicode="9" horiz-adv-x="484" 
d="M242 264c-112 0 -202 91 -202 203c0 111 90 202 202 202s202 -91 202 -202c0 -31 -6 -58 -17 -83l-165 -384h-74l117 275c-20 -7 -41 -11 -63 -11zM242 600c-74 0 -134 -59 -134 -133c0 -75 60 -134 134 -134c75 0 134 59 134 134c0 74 -59 133 -134 133z" />
    <glyph glyph-name="fraction" unicode="&#x2044;" horiz-adv-x="496" 
d="M398 666h58l-358 -666h-58z" />
    <glyph glyph-name="asterisk" unicode="*" horiz-adv-x="442" 
d="M402 565l-122 -84l122 -84l-38 -56l-109 76v-102h-68v102l-109 -76l-38 56l122 84l-122 84l38 56l109 -76v120h68v-120l109 76z" />
    <glyph glyph-name="backslash" unicode="\" horiz-adv-x="515" 
d="M117 666l358 -666h-77l-358 666h77z" />
    <glyph glyph-name="periodcentered" unicode="&#xb7;" horiz-adv-x="189" 
d="M64 264c25 0 45 20 45 44s-20 44 -45 44c-24 0 -44 -20 -44 -44s20 -44 44 -44z" />
    <glyph glyph-name="bullet" unicode="&#x2022;" horiz-adv-x="355" 
d="M177 437c76 0 138 -61 138 -137s-62 -137 -138 -137s-137 61 -137 137s61 137 137 137z" />
    <glyph glyph-name="colon" unicode=":" horiz-adv-x="189" 
d="M64 341c25 0 45 20 45 44s-20 44 -45 44c-24 0 -44 -20 -44 -44s20 -44 44 -44zM64 -1c25 0 45 20 45 44s-20 44 -45 44c-24 0 -44 -20 -44 -44s20 -44 44 -44z" />
    <glyph glyph-name="comma" unicode="," horiz-adv-x="221" 
d="M99 107h72l-69 -209h-62z" />
    <glyph glyph-name="ellipsis" unicode="&#x2026;" horiz-adv-x="534" 
d="M64 -2c25 0 45 20 45 44s-20 44 -45 44c-24 0 -44 -20 -44 -44s20 -44 44 -44zM237 -2c25 0 45 20 45 44s-20 44 -45 44c-24 0 -44 -20 -44 -44s20 -44 44 -44zM409 -2c25 0 45 20 45 44s-20 44 -45 44c-24 0 -44 -20 -44 -44s20 -44 44 -44z" />
    <glyph glyph-name="exclam" unicode="!" horiz-adv-x="189" 
d="M128 146h-68v519h68v-519zM94 -2c25 0 45 20 45 44s-20 44 -45 44c-24 0 -44 -20 -44 -44s20 -44 44 -44z" />
    <glyph glyph-name="exclamdown" unicode="&#xa1;" horiz-adv-x="189" 
d="M94 667c-24 0 -44 -20 -44 -44s20 -44 44 -44c25 0 45 20 45 44s-20 44 -45 44zM128 519v-519h-68v519h68z" />
    <glyph glyph-name="numbersign" unicode="#" horiz-adv-x="765" 
d="M715 410h-187v-156h187v-68h-187v-186h-68v186h-156v-186h-68v186h-186v68h186v156h-186v68h186v187h68v-187h156v187h68v-187h187v-68zM460 254v156h-156v-156h156z" />
    <glyph glyph-name="period" unicode="." horiz-adv-x="159" 
d="M64 -2c25 0 45 20 45 44s-20 44 -45 44c-24 0 -44 -20 -44 -44s20 -44 44 -44z" />
    <glyph glyph-name="question" unicode="?" horiz-adv-x="509" 
d="M306 157h-68v132l99 83c44 37 64 74 64 121c0 81 -66 146 -146 146c-81 0 -147 -65 -147 -146h-68c0 119 96 215 215 215c118 0 214 -96 214 -215c0 -67 -29 -124 -88 -174l-75 -62v-100zM272 0c-24 0 -44 20 -44 44c0 25 20 45 44 45c25 0 45 -20 45 -45
c0 -24 -20 -44 -45 -44z" />
    <glyph glyph-name="questiondown" unicode="&#xbf;" horiz-adv-x="509" 
d="M237 536c24 0 44 -20 44 -44c0 -25 -20 -45 -44 -45c-25 0 -45 20 -45 45c0 24 20 44 45 44zM203 379h68v-132l-99 -83c-44 -37 -64 -74 -64 -121c0 -81 66 -146 146 -146c81 0 147 65 147 146h68c0 -119 -96 -215 -215 -215c-118 0 -214 96 -214 215c0 67 29 124 88 174
l75 62v100z" />
    <glyph glyph-name="quotedbl" unicode="&#x22;" horiz-adv-x="266" 
d="M103 454h-57l-6 210h69zM220 454h-57l-6 210h69z" />
    <glyph glyph-name="quotesingle" unicode="'" horiz-adv-x="149" 
d="M103 454h-57l-6 210h69z" />
    <glyph glyph-name="semicolon" unicode=";" horiz-adv-x="221" 
d="M126 341c25 0 45 20 45 44s-20 44 -45 44c-24 0 -44 -20 -44 -44s20 -44 44 -44zM89 107h72l-69 -209h-62z" />
    <glyph glyph-name="slash" unicode="/" horiz-adv-x="515" 
d="M398 666h77l-358 -666h-77z" />
    <glyph glyph-name="underscore" unicode="_" horiz-adv-x="516" 
d="M40 -98v50h436v-50h-436z" />
    <glyph glyph-name="braceleft" unicode="{" horiz-adv-x="327" 
d="M206 597c-18 0 -32 -14 -32 -32v-143c1 -22 1 -94 -32 -127c-9 -8 -23 -17 -36 -25c13 -7 27 -16 36 -25c33 -32 33 -104 32 -127v-142c0 -18 14 -32 32 -32h91v-68h-91c-55 0 -100 45 -100 100v145c2 32 -4 69 -12 77c-8 9 -27 19 -44 28v89c17 9 36 19 44 28
c8 8 14 45 12 77v145c0 55 45 100 100 100h91v-68h-91z" />
    <glyph glyph-name="braceright" unicode="}" horiz-adv-x="327" 
d="M141 597h-91v68h91c55 0 100 -45 100 -100v-145c-2 -32 4 -69 12 -77c8 -9 27 -19 44 -28v-89c-17 -9 -36 -19 -44 -28c-8 -8 -14 -45 -12 -77v-145c0 -55 -45 -100 -100 -100h-91v68h91c18 0 32 14 32 32v142c-1 23 -1 95 32 127c9 9 23 18 36 25c-13 8 -27 17 -36 25
c-33 33 -33 105 -32 127v143c0 18 -14 32 -32 32z" />
    <glyph glyph-name="bracketleft" unicode="[" horiz-adv-x="289" 
d="M259 -128h-209v792h209v-68h-142v-656h142v-68z" />
    <glyph glyph-name="bracketright" unicode="]" horiz-adv-x="289" 
d="M50 -128v68h142v656h-142v68h209v-792h-209z" />
    <glyph glyph-name="parenleft" unicode="(" horiz-adv-x="189" 
d="M159 665c-27 -135 -41 -274 -41 -412c0 -126 11 -251 34 -374h-69c-22 123 -33 248 -33 374c0 138 14 277 40 412h69z" />
    <glyph glyph-name="parenright" unicode=")" horiz-adv-x="189" 
d="M50 665h69c26 -135 40 -274 40 -412c0 -126 -11 -251 -33 -374h-69c23 123 34 248 34 374c0 138 -14 277 -41 412z" />
    <glyph glyph-name="emdash" unicode="&#x2014;" horiz-adv-x="705" 
d="M665 246h-625v68h625v-68z" />
    <glyph glyph-name="endash" unicode="&#x2013;" horiz-adv-x="550" 
d="M510 246h-470v68h470v-68z" />
    <glyph glyph-name="hyphen" unicode="-" horiz-adv-x="432" 
d="M392 246h-352v68h352v-68z" />
    <glyph glyph-name="guillemotleft" unicode="&#xab;" horiz-adv-x="564" 
d="M324 87h-96l-188 191l179 193h93l-177 -191zM524 87h-96l-189 191l179 193h94l-178 -191z" />
    <glyph glyph-name="guillemotright" unicode="&#xbb;" horiz-adv-x="564" 
d="M40 87l190 193l-178 191h94l179 -193l-189 -191h-96zM240 87l189 193l-177 191h93l179 -193l-188 -191h-96z" />
    <glyph glyph-name="guilsinglleft" unicode="&#x2039;" horiz-adv-x="365" 
d="M325 87h-96l-189 191l179 193h94l-178 -191z" />
    <glyph glyph-name="guilsinglright" unicode="&#x203a;" horiz-adv-x="365" 
d="M40 87l190 193l-178 191h94l179 -193l-189 -191h-96z" />
    <glyph glyph-name="quotedblbase" unicode="&#x201e;" horiz-adv-x="355" 
d="M99 107h72l-69 -209h-62zM243 107h72l-69 -209h-62z" />
    <glyph glyph-name="quotedblleft" unicode="&#x201c;" horiz-adv-x="306" 
d="M112 688l59 -209h-62l-69 209h72zM247 688l59 -209h-62l-69 209h72z" />
    <glyph glyph-name="quotedblright" unicode="&#x201d;" horiz-adv-x="306" 
d="M59 688h72l-69 -209h-62zM194 688h72l-69 -209h-62z" />
    <glyph glyph-name="quoteleft" unicode="&#x2018;" horiz-adv-x="171" 
d="M112 688l59 -209h-62l-69 209h72z" />
    <glyph glyph-name="quoteright" unicode="&#x2019;" horiz-adv-x="171" 
d="M99 688h72l-69 -209h-62z" />
    <glyph glyph-name="quotesinglbase" unicode="&#x201a;" horiz-adv-x="211" 
d="M99 107h72l-69 -209h-62z" />
    <glyph glyph-name="space" unicode=" " horiz-adv-x="500" 
 />
    <glyph glyph-name="cent" unicode="&#xa2;" horiz-adv-x="525" 
d="M292 138c52 0 98 21 132 55l61 -35c-41 -48 -99 -81 -166 -88v-48h-69v51c-119 20 -210 124 -210 249c0 126 91 229 210 250v52h69v-50c67 -7 125 -39 166 -88l-61 -35c-34 34 -80 55 -132 55c-101 0 -184 -82 -184 -184c0 -101 83 -184 184 -184z" />
    <glyph glyph-name="currency" unicode="&#xa4;" horiz-adv-x="586" 
d="M546 250c0 -57 -19 -110 -51 -152l45 -45l-49 -49l-45 45c-42 -32 -95 -51 -153 -51c-57 0 -110 19 -153 51l-45 -45l-48 49l45 45c-32 42 -52 95 -52 152c0 58 20 111 52 153l-45 45l48 49l45 -45c43 32 96 51 153 51c58 0 111 -19 153 -51l45 45l49 -49l-45 -45
c32 -42 51 -95 51 -153zM293 66c39 0 74 12 104 32c19 13 35 30 48 49c21 29 32 65 32 103c0 39 -11 75 -32 104c-13 19 -29 36 -48 49c-30 20 -65 32 -104 32c-38 0 -74 -12 -103 -32c-19 -13 -36 -30 -49 -49c-20 -29 -32 -65 -32 -104c0 -38 12 -74 32 -103
c13 -19 30 -36 49 -49c29 -20 65 -32 103 -32z" />
    <glyph glyph-name="dollar" unicode="$" horiz-adv-x="550" 
d="M430 323c48 -28 70 -75 70 -136c0 -48 -19 -95 -55 -128c-36 -36 -84 -53 -136 -58v-57h-68v58c-51 7 -95 25 -128 56c-35 32 -56 77 -63 131h69c6 -34 19 -61 41 -82c20 -18 48 -31 81 -36v229c-112 16 -169 75 -169 178c0 52 18 101 51 134c29 28 69 46 118 51v58h68
v-58c123 -12 179 -99 189 -191h-69c-3 21 -10 44 -23 65c-21 34 -52 53 -97 59v-234c54 -7 92 -19 121 -39zM139 478c0 -77 47 -100 102 -108v225c-30 -4 -53 -14 -70 -31c-27 -28 -32 -66 -32 -86zM309 69c74 9 123 55 123 118c0 55 -21 91 -123 106v-224z" />
    <glyph glyph-name="Euro" unicode="&#x20ac;" horiz-adv-x="594" 
d="M459 601c-113 0 -209 -69 -250 -167h208v-69h-226c-1 -11 -2 -22 -2 -34c0 -11 1 -22 2 -33h226v-69h-208c41 -98 137 -167 250 -167c33 0 65 6 95 17v-72c-31 -9 -63 -14 -95 -14c-151 0 -280 99 -323 236h-96v69h82c-1 11 -2 22 -2 33s1 23 2 34h-82v69h96
c44 137 172 236 323 236c32 0 64 -5 95 -14v-72c-30 11 -62 17 -95 17z" />
    <glyph glyph-name="sterling" unicode="&#xa3;" horiz-adv-x="398" 
d="M291 621c-64 0 -116 -52 -116 -115v-69h116v-69h-116v-299h183v-69h-318v69h67v299h-53v69h53v69c0 101 82 183 183 184h68v-69h-67z" />
    <glyph glyph-name="yen" unicode="&#xa5;" horiz-adv-x="563" 
d="M523 668l-173 -352h120v-69h-154v-67h154v-69h-154v-111h-69v111h-154v69h154v65l-1 2h-153v69h119l-172 352h77l164 -336l165 336h77z" />
    <glyph glyph-name="plus" unicode="+" horiz-adv-x="550" 
d="M510 314v-68h-201v-201h-68v201h-201v68h201v201h68v-201h201z" />
    <glyph glyph-name="minus" unicode="&#x2212;" horiz-adv-x="550" 
d="M510 246h-470v68h470v-68z" />
    <glyph glyph-name="multiply" unicode="&#xd7;" horiz-adv-x="461" 
d="M421 422l-142 -142l142 -142l-48 -48l-142 142l-142 -142l-49 48l142 142l-142 142l49 48l142 -142l142 142z" />
    <glyph glyph-name="divide" unicode="&#xf7;" horiz-adv-x="549" 
d="M274 374c-24 0 -44 20 -44 44c0 25 20 45 44 45c25 0 45 -20 45 -45c0 -24 -20 -44 -45 -44zM509 247v68h-469v-68h469zM274 99c25 0 45 20 45 45c0 24 -20 44 -45 44c-24 0 -44 -20 -44 -44c0 -25 20 -45 44 -45z" />
    <glyph glyph-name="equal" unicode="=" horiz-adv-x="550" 
d="M510 332v69h-470v-69h470zM510 163h-470v68h470v-68z" />
    <glyph glyph-name="notequal" unicode="&#x2260;" horiz-adv-x="550" 
d="M510 329h-145l-81 -100h226v-69h-282l-102 -126l-54 44l67 82h-99v69h155l81 100h-236v69h292l93 114l53 -43l-57 -71h89v-69z" />
    <glyph glyph-name="greater" unicode="&#x3e;" horiz-adv-x="668" 
d="M40 74l485 197l-485 206v74l588 -249v-63l-588 -239v74z" />
    <glyph glyph-name="less" unicode="&#x3c;" horiz-adv-x="668" 
d="M628 74v-74l-588 239v63l588 249v-74l-485 -206z" />
    <glyph glyph-name="greaterequal" unicode="&#x2265;" horiz-adv-x="613" 
d="M40 437v72l533 -165l-1 -66l-532 -155v72l404 117zM40 0v69h523v-69h-523z" />
    <glyph glyph-name="lessequal" unicode="&#x2264;" horiz-adv-x="613" 
d="M573 437l-404 -125l404 -117v-72l-532 155l-1 66l533 165v-72zM573 0h-523v69h523v-69z" />
    <glyph glyph-name="plusminus" unicode="&#xb1;" horiz-adv-x="550" 
d="M309 381h201v-69h-201v-125h-68v125h-201v69h201v125h68v-125zM40 75v69h470v-69h-470z" />
    <glyph glyph-name="approxequal" unicode="&#x2248;" horiz-adv-x="595" 
d="M417 287h-1c-57 0 -100 24 -137 44c-33 17 -61 33 -95 32c-31 0 -60 -22 -84 -65l-60 35c37 64 87 98 143 99h3c50 0 88 -21 125 -41c34 -18 66 -35 106 -36c24 0 48 22 73 65l59 -34c-37 -66 -82 -99 -132 -99zM417 145h-1c-57 0 -100 24 -137 44c-33 17 -61 33 -95 32
c-31 0 -55 -34 -79 -77l-60 35c37 64 76 110 138 111h3c50 0 88 -21 125 -41c52 -28 64 -36 109 -36c24 0 57 12 76 55l59 -34c-41 -67 -88 -89 -138 -89z" />
    <glyph glyph-name="asciitilde" unicode="~" horiz-adv-x="589" 
d="M417 290h-1c-57 0 -100 24 -137 44c-33 17 -61 33 -95 32c-31 0 -60 -22 -84 -65l-60 35c37 64 87 98 143 99h3c50 0 88 -21 125 -41c34 -18 66 -35 106 -36c24 0 48 22 73 65l59 -34c-37 -66 -82 -99 -132 -99z" />
    <glyph glyph-name="logicalnot" unicode="&#xac;" horiz-adv-x="581" 
d="M541 108h-68v156h-433v68l501 1v-225z" />
    <glyph glyph-name="emptyset" unicode="&#x2205;" horiz-adv-x="747" 
d="M557 610c90 -60 150 -163 150 -279c0 -184 -150 -333 -334 -333c-46 0 -91 9 -131 27l-13 -25h-69l29 54c-90 59 -149 161 -149 277c0 184 149 334 333 334c46 0 90 -9 130 -26l15 27h69zM98 331c0 -93 47 -176 118 -226l260 482c-32 13 -66 20 -102 20
c-152 0 -276 -124 -276 -276zM374 55c152 0 276 124 276 276c0 94 -48 178 -121 228l-259 -483c32 -14 67 -21 104 -21z" />
    <glyph glyph-name="infinity" unicode="&#x221e;" horiz-adv-x="594" 
d="M418 464c75 0 136 -61 136 -136c0 -74 -61 -135 -136 -135c-43 0 -84 21 -110 56c-2 3 -5 9 -11 18l-12 -18c-25 -35 -66 -56 -110 -56c-74 0 -135 61 -135 135c0 75 61 136 135 136c44 0 85 -22 111 -58c1 -2 5 -8 11 -16c5 8 9 14 11 16c25 36 67 58 110 58zM230 289
c2 4 14 22 26 40l-26 38c-13 17 -33 28 -55 28c-37 0 -67 -30 -67 -67s30 -67 67 -67c22 0 42 11 55 28zM418 261c37 0 67 30 67 67s-30 67 -67 67c-21 0 -42 -11 -54 -28c-2 -3 -13 -18 -26 -38c12 -18 23 -36 26 -40c12 -17 33 -28 54 -28z" />
    <glyph glyph-name="integral" unicode="&#x222b;" horiz-adv-x="379" 
d="M155 554c0 101 82 183 184 183v-68c-64 0 -116 -52 -116 -115v-551c0 -101 -82 -183 -183 -183v68c63 0 115 52 115 115v551z" />
    <glyph glyph-name="product" unicode="&#x220f;" horiz-adv-x="577" 
d="M537 666v-72h-105v-593h-72v593h-134v-593h-72v593h-114v72h497z" />
    <glyph glyph-name="summation" unicode="&#x2211;" horiz-adv-x="470" 
d="M430 670v-69h-309l164 -270l-164 -266h309v-69h-390v68l164 268l-164 269v69h390z" />
    <glyph glyph-name="radical" unicode="&#x221a;" horiz-adv-x="572" 
d="M350 666h182v-68h-131l-180 -598h-67l-114 267h75l67 -158z" />
    <glyph glyph-name="partialdiff" unicode="&#x2202;" horiz-adv-x="485" 
d="M433 225c9 -26 13 -54 11 -84c-7 -111 -104 -196 -215 -188c-112 8 -196 104 -189 216c8 111 105 196 216 188c22 -2 45 -8 65 -21c-2 2 -4 12 -5 14l-12 36c-9 25 -43 135 -60 160c-15 21 -38 37 -63 44c-12 4 -25 5 -38 5c-4 0 -40 -7 -39 -9l-27 63h2
c48 21 104 19 152 -5c23 -11 44 -27 60 -47c20 -24 30 -52 40 -81l39 -113c14 -41 29 -81 43 -121c6 -19 13 -38 20 -57zM376 146c5 74 -51 138 -124 143c-74 5 -138 -51 -143 -125c-5 -73 51 -138 124 -143c74 -5 138 51 143 125z" />
    <glyph glyph-name="percent" unicode="%" horiz-adv-x="764" 
d="M186 666c-76 0 -137 -62 -137 -138c0 -75 61 -137 137 -137s137 62 137 137c0 76 -61 138 -137 138zM518 666h77l-358 -666h-77zM186 597c38 0 69 -31 69 -69s-31 -69 -69 -69s-69 31 -69 69s31 69 69 69zM578 272c-76 0 -137 -61 -137 -137s61 -137 137 -137
s138 61 138 137s-62 137 -138 137zM578 204c38 0 69 -31 69 -69s-31 -69 -69 -69s-69 31 -69 69s31 69 69 69z" />
    <glyph glyph-name="perthousand" unicode="&#x2030;" horiz-adv-x="981" 
d="M177 666c-76 0 -137 -62 -137 -138c0 -75 61 -137 137 -137s137 62 137 137c0 76 -61 138 -137 138zM469 666h77l-358 -666h-77zM177 597c38 0 69 -31 69 -69s-31 -69 -69 -69s-69 31 -69 69s31 69 69 69zM470 272c-76 0 -137 -61 -137 -137s61 -137 137 -137
s138 61 138 137s-62 137 -138 137zM803 272c-76 0 -137 -61 -137 -137s61 -137 137 -137s138 61 138 137s-62 137 -138 137zM470 204c38 0 69 -31 69 -69s-31 -69 -69 -69s-69 31 -69 69s31 69 69 69zM803 204c38 0 69 -31 69 -69s-31 -69 -69 -69s-69 31 -69 69
s31 69 69 69z" />
    <glyph glyph-name="lozenge" unicode="&#x25ca;" horiz-adv-x="389" 
d="M237 641l112 -320l-112 -321h-85l-112 321l112 320h85zM195 82l83 239l-83 238l-84 -238z" />
    <glyph glyph-name="at" unicode="@" horiz-adv-x="750" 
d="M375 667c185 0 335 -150 335 -335c0 -93 -21 -158 -65 -199c-37 -34 -97 -46 -140 -27c-31 13 -49 41 -49 75v35c-27 -22 -61 -35 -99 -35c-84 0 -153 68 -153 153c0 84 69 153 153 153c38 0 72 -14 99 -36v36h68v-263v-43c0 -6 1 -9 8 -12c16 -7 47 -3 66 14
c29 28 44 77 44 149c0 147 -120 266 -267 266s-266 -119 -266 -266s119 -267 266 -267c23 0 45 3 67 9l17 -67c-27 -7 -55 -10 -84 -10c-184 0 -335 150 -335 335s151 335 335 335zM357 249c47 0 85 38 85 85c0 46 -38 84 -85 84c-46 0 -84 -38 -84 -84c0 -47 38 -85 84 -85
z" />
    <glyph glyph-name="ampersand" unicode="&#x26;" horiz-adv-x="550" 
d="M445 77l55 -77h-84l-22 32h-1l-2 -1l-2 -2c-35 -22 -74 -33 -113 -33c-71 0 -143 35 -187 101c-33 49 -46 108 -36 165c9 55 38 103 83 135l-20 28c-27 38 -28 67 -28 72c0 93 76 169 168 169c93 0 169 -76 169 -169h-68c0 56 -45 101 -101 101c-55 0 -100 -45 -100 -100
c0 -2 2 -15 16 -34l231 -328c15 24 22 51 21 79v24h68v-22c2 -51 -15 -100 -47 -140zM352 87l2 1l-179 254c-30 -22 -49 -54 -55 -91c-7 -40 2 -81 26 -116c47 -71 140 -93 206 -48z" />
    <glyph glyph-name="paragraph" unicode="&#xb6;" horiz-adv-x="493" 
d="M314 665v-665h-68v352h-50c-86 0 -156 70 -156 157c0 86 70 156 156 156h118zM443 0h-68v665h68v-665z" />
    <glyph glyph-name="section" unicode="&#xa7;" horiz-adv-x="430" 
d="M40 334c0 34 12 67 35 92c-1 1 -1 1 -1 2c-26 29 -38 70 -33 112c11 83 73 129 174 129h1c82 0 124 -39 145 -71c15 -24 22 -49 26 -71h-71c-2 12 -6 23 -13 34c-17 27 -46 40 -87 40c-98 0 -104 -49 -107 -70c-3 -22 3 -44 16 -58l10 -9c14 -11 34 -16 59 -16
c44 0 94 -3 132 -23c42 -22 64 -62 64 -119c0 -34 -12 -67 -35 -92c1 -1 1 -1 1 -2c26 -29 38 -70 32 -112c-10 -83 -72 -129 -173 -129h-1c-82 0 -124 39 -145 71c-15 24 -22 49 -26 71h70c3 -11 7 -23 14 -34c17 -27 46 -40 87 -40c97 0 104 49 107 70c2 22 -4 43 -16 58
l-10 9c-14 11 -34 16 -59 16c-44 0 -94 3 -132 23c-42 22 -64 62 -64 119zM109 334c0 -63 39 -74 127 -74c24 0 43 -3 60 -9c16 14 25 33 25 55c0 63 -39 74 -127 74c-24 0 -44 3 -60 9c-16 -14 -25 -33 -25 -55z" />
    <glyph glyph-name="copyright" unicode="&#xa9;" horiz-adv-x="750" 
d="M375 666c-185 0 -335 -150 -335 -335c0 -186 150 -335 335 -335s335 149 335 335c0 185 -150 335 -335 335zM375 597c147 0 267 -120 267 -266c0 -147 -120 -267 -267 -267c-146 0 -266 120 -266 267c0 146 120 266 266 266zM385 148c55 0 106 24 141 66l-52 44
c-22 -26 -54 -41 -89 -41c-63 0 -115 52 -115 116c0 63 52 115 115 115c35 0 67 -15 89 -41l52 44c-35 42 -86 66 -141 66c-101 0 -184 -83 -184 -184c0 -102 83 -185 184 -185z" />
    <glyph glyph-name="registered" unicode="&#xae;" horiz-adv-x="538" 
d="M274 669c127 0 230 -104 230 -230c0 -127 -103 -230 -230 -230s-230 103 -230 230c0 126 103 230 230 230zM274 257c100 0 181 82 181 182s-81 181 -181 181s-181 -81 -181 -181s81 -182 181 -182zM361 486c0 -38 -25 -71 -59 -83l68 -76h-65l-55 61v-61h-49v246h72
c48 0 88 -39 88 -87zM250 524v-77h23c22 0 39 18 39 39s-17 38 -39 38h-23z" />
    <glyph glyph-name="trademark" unicode="&#x2122;" horiz-adv-x="452" 
d="M372 665h40v-215h-38v153l-60 -79h-36l-60 79v-154h-39v216h40l77 -100zM167 664v-39h-44v-176h-39v176h-44v39h127z" />
    <glyph glyph-name="degree" unicode="&#xb0;" horiz-adv-x="355" 
d="M177 702c-76 0 -137 -61 -137 -137s61 -137 137 -137s138 61 138 137s-62 137 -138 137zM177 654c49 0 89 -40 89 -89s-40 -89 -89 -89s-89 40 -89 89s40 89 89 89z" />
    <glyph glyph-name="bar" unicode="|" horiz-adv-x="172" 
d="M122 0h-72v665h72v-665z" />
    <glyph glyph-name="brokenbar" unicode="&#xa6;" horiz-adv-x="172" 
d="M122 403h-72v263h72v-263zM122 0h-72v263h72v-263z" />
    <glyph glyph-name="dagger" unicode="&#x2020;" horiz-adv-x="371" 
d="M331 519v-72h-110v-260h-72v260h-109v72h109v146h72v-146h110z" />
    <glyph glyph-name="daggerdbl" unicode="&#x2021;" horiz-adv-x="371" 
d="M331 447h-110v-72h110v-72h-110v-116h-72v116h-109v72h109v72h-109v72h109v146h72v-146h110v-72z" />
    <glyph glyph-name="asciicircum" unicode="^" horiz-adv-x="389" 
d="M111 344h-71l112 321h85l112 -321h-71l-84 239z" />
    <glyph glyph-name="uni0308" unicode="&#x308;" 
d="M-293 545c25 0 45 20 45 44s-20 44 -45 44c-24 0 -44 -20 -44 -44s20 -44 44 -44zM-115 545c25 0 45 20 45 44s-20 44 -45 44c-24 0 -44 -20 -44 -44s20 -44 44 -44z" />
    <glyph glyph-name="uni0307" unicode="&#x307;" 
d="M-115 545c25 0 45 20 45 44s-20 44 -45 44c-24 0 -44 -20 -44 -44s20 -44 44 -44z" />
    <glyph glyph-name="gravecomb" unicode="&#x300;" 
d="M-101 712l46 -163h-62l-54 163h70z" />
    <glyph glyph-name="acutecomb" unicode="&#x301;" 
d="M-71 712h70l-54 -163h-62z" />
    <glyph glyph-name="uni030B" unicode="&#x30b;" 
d="M-184 711h70l-54 -163h-62zM-71 711h70l-54 -163h-62z" />
    <glyph glyph-name="uni0302" unicode="&#x302;" 
d="M-118 545l-52 53l-54 -53h-78l133 131l127 -131h-76z" />
    <glyph glyph-name="uni030C" unicode="&#x30c;" 
d="M-118 676h76l-127 -131l-133 131h78l54 -53z" />
    <glyph glyph-name="uni0306" unicode="&#x306;" 
d="M-95 682h55c-3 -40 -24 -78 -61 -102c-23 -15 -49 -23 -74 -23c-44 0 -88 22 -114 61c-13 20 -20 42 -22 64h55c2 -11 6 -23 13 -33c25 -38 75 -48 112 -23c20 13 33 34 36 56z" />
    <glyph glyph-name="uni030A" unicode="&#x30a;" 
d="M-314 536c-30 0 -58 15 -76 41c-13 20 -18 44 -13 68s19 44 39 57c41 28 98 16 125 -25c28 -42 16 -98 -25 -126c-16 -10 -33 -15 -50 -15zM-314 676c-10 0 -19 -2 -28 -8c-11 -7 -18 -18 -21 -31c-2 -13 0 -26 7 -37c15 -23 46 -29 69 -14s29 45 14 68
c-10 14 -25 22 -41 22z" />
    <glyph glyph-name="tildecomb" unicode="&#x303;" 
d="M-85 636l45 -35c-25 -39 -50 -61 -80 -67c-32 -6 -61 9 -86 22c-18 9 -36 18 -54 19c-17 0 -32 -21 -39 -33c-1 -3 -3 -6 -4 -9l-45 36c7 13 16 25 27 35c18 19 40 28 63 27c30 -1 56 -14 78 -25c20 -10 36 -18 49 -16c19 2 32 18 46 46z" />
    <glyph glyph-name="uni0304" unicode="&#x304;" 
d="M0 570h-321v50h321v-50z" />
    <glyph glyph-name="uni0312" unicode="&#x312;" 
d="M-147 569l45 135h62l-38 -135h-69z" />
    <glyph glyph-name="uni0326" unicode="&#x326;" 
d="M-243 0l-50 -152h-62l41 152h71z" />
    <glyph glyph-name="uni0327" unicode="&#x327;" 
d="M-117 -20c44 -9 77 -48 77 -94c0 -53 -43 -96 -96 -96c-24 0 -47 9 -65 25l35 38c8 -7 19 -11 30 -11c24 0 44 20 44 44s-20 45 -44 45c-7 0 -12 -2 -18 -4l-20 47l16 41h55z" />
    <glyph glyph-name="uni0328" unicode="&#x328;" 
d="M-38 -208c-16 -1 -27 1 -32 2c-52 13 -85 66 -74 118c7 37 32 65 66 77l1 17l53 1l-1 -67s-14 2 -24 0c-21 -2 -38 -18 -42 -38c-5 -24 10 -48 34 -54c3 -1 31 -7 53 17l40 -37c-24 -28 -53 -35 -74 -36z" />
    <glyph glyph-name="uni0335" unicode="&#x335;" 
d="M-577 256v60h504v-60h-504z" />
    <glyph glyph-name="uni0337" unicode="&#x337;" 
d="M-40 546l-299 -556h-77l299 556h77z" />
    <glyph glyph-name="uni0338" unicode="&#x338;" 
d="M-117 666h77l-358 -666h-77z" />
    <glyph glyph-name="acute" unicode="&#xb4;" horiz-adv-x="600" 
d="M125 712h70l-54 -163h-62z" />
    <glyph glyph-name="breve" unicode="&#x2d8;" horiz-adv-x="600" 
d="M256 682h55c-3 -40 -24 -78 -61 -102c-23 -15 -49 -23 -74 -23c-44 0 -88 22 -114 61c-13 20 -20 42 -22 64h55c2 -11 6 -23 13 -33c25 -38 75 -48 112 -23c20 13 33 34 36 56z" />
    <glyph glyph-name="caron" unicode="&#x2c7;" horiz-adv-x="600" 
d="M222 676h76l-127 -131l-133 131h78l54 -53z" />
    <glyph glyph-name="cedilla" unicode="&#xb8;" horiz-adv-x="600" 
d="M124 -20c44 -9 77 -48 77 -94c0 -53 -43 -96 -96 -96c-24 0 -47 9 -65 25l35 38c8 -7 19 -11 30 -11c24 0 44 20 44 44s-20 45 -44 45c-7 0 -12 -2 -18 -4l-20 47l16 41h55z" />
    <glyph glyph-name="circumflex" unicode="&#x2c6;" horiz-adv-x="600" 
d="M222 545l-52 53l-54 -53h-78l133 131l127 -131h-76z" />
    <glyph glyph-name="dieresis" unicode="&#xa8;" horiz-adv-x="600" 
d="M54 545c25 0 45 20 45 44s-20 44 -45 44c-24 0 -44 -20 -44 -44s20 -44 44 -44zM232 545c25 0 45 20 45 44s-20 44 -45 44c-24 0 -44 -20 -44 -44s20 -44 44 -44z" />
    <glyph glyph-name="dotaccent" unicode="&#x2d9;" horiz-adv-x="600" 
d="M54 545c25 0 45 20 45 44s-20 44 -45 44c-24 0 -44 -20 -44 -44s20 -44 44 -44z" />
    <glyph glyph-name="grave" unicode="`" horiz-adv-x="600" 
d="M95 712l46 -163h-62l-54 163h70z" />
    <glyph glyph-name="hungarumlaut" unicode="&#x2dd;" horiz-adv-x="600" 
d="M125 711h70l-54 -163h-62zM238 711h70l-54 -163h-62z" />
    <glyph glyph-name="macron" unicode="&#xaf;" horiz-adv-x="600" 
d="M321 570h-321v50h321v-50z" />
    <glyph glyph-name="ogonek" unicode="&#x2db;" horiz-adv-x="600" 
d="M221 -208c-16 -1 -27 1 -32 2c-52 13 -85 66 -74 118c7 37 32 65 66 77l1 17l53 1l-1 -67s-14 2 -24 0c-21 -2 -38 -18 -42 -38c-5 -24 10 -48 34 -54c3 -1 31 -7 53 17l40 -37c-24 -28 -53 -35 -74 -36z" />
    <glyph glyph-name="ring" unicode="&#x2da;" horiz-adv-x="600" 
d="M286 536c-30 0 -58 15 -76 41c-13 20 -18 44 -13 68s19 44 39 57c41 28 98 16 125 -25c28 -42 16 -98 -25 -126c-16 -10 -33 -15 -50 -15zM286 676c-10 0 -19 -2 -28 -8c-11 -7 -18 -18 -21 -31c-2 -13 0 -26 7 -37c15 -23 46 -29 69 -14s29 45 14 68
c-10 14 -25 22 -41 22z" />
    <glyph glyph-name="tilde" unicode="&#x2dc;" horiz-adv-x="600" 
d="M303 636l45 -35c-25 -39 -50 -61 -80 -67c-32 -6 -61 9 -86 22c-18 9 -36 18 -54 19c-17 0 -32 -21 -39 -33c-1 -3 -3 -6 -4 -9l-45 36c7 13 16 25 27 35c18 19 40 28 63 27c30 -1 56 -14 78 -25c20 -10 36 -18 49 -16c19 2 32 18 46 46z" />
    </font>
</defs>
</svg>
